<svg width="20" height="16" viewBox="0 0 20 16" fill="none" xmlns="http://www.w3.org/2000/svg">
<path d="M17.2979 0.682617H2.29785C1.02285 0.682617 0.0478516 1.65762 0.0478516 2.93262V13.4326C0.0478516 14.7076 1.02285 15.6826 2.29785 15.6826H17.2979C18.5729 15.6826 19.5479 14.7076 19.5479 13.4326V2.93262C19.5479 1.65762 18.5729 0.682617 17.2979 0.682617ZM16.3229 11.3326C16.6229 11.6326 16.6979 12.0826 16.3979 12.3826C16.2479 12.6076 16.0229 12.6826 15.7979 12.6826C15.6479 12.6826 15.4229 12.6076 15.2729 12.5326L11.4479 9.23262L10.2479 10.2826C10.1729 10.3576 9.94785 10.4326 9.79785 10.4326C9.64785 10.4326 9.42285 10.3576 9.27285 10.2826L8.07285 9.23262L4.24785 12.5326C4.17285 12.6076 3.94785 12.6826 3.79785 12.6826C3.57285 12.6826 3.34785 12.6076 3.19785 12.4576C2.89785 12.1576 2.97285 11.7076 3.27285 11.4076L6.94785 8.25762L3.27285 5.10762C2.97285 4.80762 2.89785 4.35762 3.19785 4.05762C3.49785 3.75762 3.94785 3.68262 4.24785 3.98262L9.72285 8.78262L15.1979 3.98262C15.4979 3.68262 15.9479 3.75762 16.2479 4.05762C16.5479 4.35762 16.4729 4.80762 16.1729 5.10762L12.6479 8.18262L16.3229 11.3326Z" fill="#0D084D"/>
</svg>
