<svg width="25" height="22" viewBox="0 0 25 22" fill="none" xmlns="http://www.w3.org/2000/svg">
<path d="M22.9268 2.5677C22.2503 1.90274 21.4421 1.38691 20.5541 1.05347C19.6661 0.72003 18.718 0.576374 17.7711 0.631763C16.8242 0.687153 15.8994 0.94036 15.0563 1.37506C14.2132 1.80976 13.4706 2.4163 12.8763 3.15559C12.282 2.4163 11.5394 1.80976 10.6963 1.37506C9.85327 0.94036 8.92846 0.687153 7.98154 0.631763C7.03462 0.576374 6.08659 0.72003 5.19859 1.05347C4.31059 1.38691 3.50232 1.90274 2.82588 2.5677C1.57406 3.82306 0.871094 5.52357 0.871094 7.29642C0.871094 9.06926 1.57406 10.7698 2.82588 12.0251L12.3344 21.5286C12.4053 21.6003 12.4897 21.6572 12.5827 21.6961C12.6757 21.735 12.7755 21.755 12.8763 21.755C12.9771 21.755 13.0769 21.735 13.17 21.6961C13.263 21.6572 13.3474 21.6003 13.4182 21.5286L22.9268 12.0251C24.1724 10.7665 24.8711 9.06722 24.8711 7.29642C24.8711 5.52561 24.1724 3.82633 22.9268 2.5677Z" fill="#F4F9FF"/>
</svg>
