<svg width="24" height="22" viewBox="0 0 24 22" fill="none" xmlns="http://www.w3.org/2000/svg">
<path d="M22.0552 2.7534C21.3788 2.08844 20.5705 1.57261 19.6825 1.23917C18.7945 0.90573 17.8465 0.762073 16.8995 0.817463C15.9526 0.872853 15.0278 1.12606 14.1847 1.56076C13.3417 1.99546 12.599 2.602 12.0047 3.34129C11.4104 2.602 10.6678 1.99546 9.82476 1.56076C8.98169 1.12606 8.05688 0.872853 7.10996 0.817463C6.16303 0.762073 5.21501 0.90573 4.32701 1.23917C3.43901 1.57261 2.63073 2.08844 1.9543 2.7534C0.702479 4.00876 -0.000488281 5.70927 -0.000488281 7.48211C-0.000488281 9.25496 0.702479 10.9555 1.9543 12.2108L11.4629 21.7143C11.5337 21.786 11.6181 21.8429 11.7111 21.8818C11.8041 21.9207 11.9039 21.9407 12.0047 21.9407C12.1056 21.9407 12.2054 21.9207 12.2984 21.8818C12.3914 21.8429 12.4758 21.786 12.5466 21.7143L22.0552 12.2108C23.3008 10.9522 23.9995 9.25292 23.9995 7.48211C23.9995 5.71131 23.3008 4.01203 22.0552 2.7534Z" fill="#0D084D"/>
</svg>
