<svg width="24" height="24" viewBox="0 0 24 24" fill="none" xmlns="http://www.w3.org/2000/svg">
<g clip-path="url(#clip0_702_3332)">
<path d="M5.18619 10.4663C5.29108 10.5721 5.4251 10.6442 5.57116 10.6735C5.71723 10.7028 5.86873 10.6879 6.00631 10.6308C6.14386 10.5737 6.26135 10.4769 6.3437 10.3528C6.42605 10.2286 6.46955 10.0828 6.46869 9.93379V6.46879H22.4999C22.6988 6.46879 22.8896 6.38977 23.0303 6.24911C23.1709 6.10849 23.2499 5.91772 23.2499 5.71879C23.2499 5.51989 23.1709 5.32912 23.0303 5.18846C22.8896 5.0478 22.6988 4.96879 22.4999 4.96879H6.46869V1.50005C6.4688 1.3514 6.42474 1.20607 6.34213 1.08251C6.25948 0.958946 6.14199 0.862729 6.00455 0.80607C5.86711 0.749411 5.71595 0.734865 5.57026 0.764287C5.42454 0.793706 5.29085 0.865759 5.18619 0.971299L0.971184 5.18629C0.901453 5.25596 0.846133 5.33869 0.808389 5.42974C0.770646 5.52075 0.751221 5.61836 0.751221 5.71691C0.751221 5.8155 0.770646 5.91307 0.808389 6.00412C0.846133 6.09517 0.901453 6.1779 0.971184 6.24754L5.18619 10.4663Z" fill="#F4F9FF"/>
<path d="M18.8137 13.5338C18.7089 13.428 18.5748 13.3559 18.4288 13.3266C18.2827 13.2973 18.1312 13.3122 17.9936 13.3693C17.856 13.4264 17.7386 13.5232 17.6562 13.6473C17.5739 13.7715 17.5304 13.9173 17.5312 14.0663V17.5313H1.5C1.30109 17.5313 1.11032 17.6103 0.969671 17.751C0.829016 17.8916 0.75 18.0824 0.75 18.2813C0.75 18.4802 0.829016 18.671 0.969671 18.8116C1.11032 18.9523 1.30109 19.0313 1.5 19.0313H17.5312V22.5001C17.5311 22.6487 17.5752 22.794 17.6578 22.9176C17.7405 23.0412 17.858 23.1374 17.9954 23.194C18.1328 23.2507 18.284 23.2653 18.4297 23.2358C18.5754 23.2064 18.7091 23.1343 18.8137 23.0288L23.0287 18.8138C23.0985 18.7441 23.1538 18.6614 23.1915 18.5704C23.2293 18.4794 23.2487 18.3817 23.2487 18.2832C23.2487 18.1846 23.2293 18.087 23.1915 17.996C23.1538 17.9049 23.0985 17.8222 23.0287 17.7526L18.8137 13.5338Z" fill="#F4F9FF"/>
</g>
<defs>
<clipPath id="clip0_702_3332">
<rect width="24" height="24" fill="white"/>
</clipPath>
</defs>
</svg>
