<svg width="24" height="25" viewBox="0 0 24 25" fill="none" xmlns="http://www.w3.org/2000/svg">
<g clip-path="url(#clip0_318_3425)">
<path d="M5.18643 11.0531C5.29132 11.1589 5.42534 11.2311 5.57141 11.2604C5.71747 11.2897 5.86897 11.2748 6.00656 11.2177C6.14411 11.1605 6.2616 11.0638 6.34395 10.9396C6.42629 10.8155 6.46979 10.6696 6.46893 10.5206V7.05564H22.5002C22.6991 7.05564 22.8898 6.97663 23.0305 6.83597C23.1712 6.69534 23.2502 6.50458 23.2502 6.30564C23.2502 6.10674 23.1712 5.91598 23.0305 5.77532C22.8898 5.63465 22.6991 5.55564 22.5002 5.55564H6.46893V2.0869C6.46904 1.93826 6.42498 1.79292 6.34237 1.66936C6.25972 1.5458 6.14223 1.44958 6.0048 1.39292C5.86736 1.33626 5.7162 1.32172 5.57051 1.35114C5.42478 1.38056 5.29109 1.45261 5.18643 1.55815L0.971429 5.77314C0.901697 5.84282 0.846377 5.92554 0.808634 6.01659C0.77089 6.1076 0.751465 6.20521 0.751465 6.30377C0.751465 6.40235 0.77089 6.49993 0.808634 6.59098C0.846377 6.68203 0.901697 6.76475 0.971429 6.83439L5.18643 11.0531Z" fill="#0D084D"/>
<path d="M18.814 14.1207C18.7091 14.0149 18.5751 13.9427 18.429 13.9134C18.283 13.8842 18.1315 13.899 17.9939 13.9561C17.8563 14.0133 17.7388 14.1101 17.6565 14.2342C17.5741 14.3583 17.5306 14.5042 17.5315 14.6532V18.1182H1.50024C1.30133 18.1182 1.11057 18.1972 0.969915 18.3378C0.82926 18.4785 0.750244 18.6692 0.750244 18.8682C0.750244 19.0671 0.82926 19.2578 0.969915 19.3985C1.11057 19.5392 1.30133 19.6182 1.50024 19.6182H17.5315V23.0869C17.5314 23.2356 17.5754 23.3809 17.6581 23.5044C17.7407 23.628 17.8582 23.7242 17.9956 23.7809C18.1331 23.8376 18.2842 23.8521 18.4299 23.8227C18.5756 23.7933 18.7093 23.7212 18.814 23.6157L23.029 19.4007C23.0987 19.331 23.1541 19.2483 23.1918 19.1572C23.2295 19.0662 23.249 18.9686 23.249 18.87C23.249 18.7715 23.2295 18.6739 23.1918 18.5828C23.1541 18.4918 23.0987 18.4091 23.029 18.3394L18.814 14.1207Z" fill="#0D084D"/>
</g>
<defs>
<clipPath id="clip0_318_3425">
<rect width="24" height="24" fill="white" transform="translate(0.000244141 0.586853)"/>
</clipPath>
</defs>
</svg>
