<svg width="24" height="25" viewBox="0 0 24 25" fill="none" xmlns="http://www.w3.org/2000/svg">
<path d="M11.9995 22.8987C10.9845 22.9408 9.99413 22.5795 9.24466 21.8937C8.49518 21.208 8.04755 20.2535 7.99954 19.2387V18.8987H4.63654C4.31271 18.8993 3.99601 18.8036 3.72659 18.624C3.45718 18.4443 3.24719 18.1886 3.12325 17.8895C2.99932 17.5903 2.96702 17.261 3.03045 16.9435C3.09388 16.6259 3.25019 16.3343 3.47954 16.1057L5.27954 14.3057V9.62574C5.28046 8.66713 5.48604 7.71977 5.88252 6.847C6.279 5.97423 6.85725 5.19617 7.57861 4.56484C8.29996 3.93351 9.14779 3.46347 10.0654 3.18615C10.983 2.90883 11.9493 2.83061 12.8995 2.95674C14.5363 3.20741 16.0272 4.04174 17.0969 5.30573C18.1666 6.56972 18.743 8.17802 18.7195 9.83374V14.2987L20.5195 16.0987C20.7504 16.3274 20.908 16.6196 20.9722 16.9381C21.0364 17.2567 21.0044 17.5871 20.8802 17.8874C20.7561 18.1876 20.5453 18.4442 20.2749 18.6243C20.0044 18.8044 19.6865 18.8999 19.3615 18.8987H15.9995V19.2397C15.951 20.2542 15.5032 21.2083 14.7538 21.8938C14.0044 22.5793 13.0143 22.9406 11.9995 22.8987ZM9.99951 18.8987V19.2397C10.055 19.7206 10.2939 20.1616 10.6665 20.4707C11.0391 20.7798 11.5166 20.9331 11.9995 20.8987C12.4824 20.9331 12.9599 20.7798 13.3325 20.4707C13.7051 20.1616 13.9441 19.7206 13.9995 19.2397V18.8987H9.99951Z" fill="#0D084D"/>
</svg>
