<svg width="24" height="24" viewBox="0 0 24 24" fill="none" xmlns="http://www.w3.org/2000/svg">
<path d="M12 22.001C10.985 22.0431 9.99462 21.6818 9.24515 20.996C8.49567 20.3103 8.04804 19.3558 8.00003 18.341V18.001H4.63703C4.3132 18.0016 3.9965 17.9059 3.72708 17.7263C3.45767 17.5466 3.24768 17.2909 3.12374 16.9918C2.99981 16.6926 2.96751 16.3633 3.03094 16.0458C3.09437 15.7282 3.25068 15.4366 3.48003 15.208L5.28003 13.408V8.72803C5.28095 7.76942 5.48653 6.82206 5.88301 5.94929C6.27949 5.07652 6.85774 4.29846 7.5791 3.66713C8.30045 3.0358 9.14828 2.56576 10.0659 2.28844C10.9835 2.01112 11.9498 1.9329 12.9 2.05903C14.5368 2.3097 16.0277 3.14403 17.0974 4.40802C18.1671 5.67201 18.7435 7.28031 18.72 8.93603V13.401L20.52 15.201C20.7509 15.4297 20.9085 15.7219 20.9727 16.0404C21.0369 16.359 21.0049 16.6894 20.8807 16.9897C20.7566 17.2899 20.5458 17.5465 20.2754 17.7266C20.0049 17.9067 19.687 18.0022 19.362 18.001H16V18.342C15.9515 19.3565 15.5037 20.3106 14.7543 20.9961C14.0049 21.6816 13.0148 22.0429 12 22.001ZM10 18.001V18.342C10.0555 18.8229 10.2944 19.2639 10.667 19.573C11.0396 19.8821 11.5171 20.0354 12 20.001C12.4829 20.0354 12.9604 19.8821 13.333 19.573C13.7056 19.2639 13.9446 18.8229 14 18.342V18.001H10Z" fill="#F4F9FF"/>
</svg>
