<svg width="24" height="25" viewBox="0 0 24 25" fill="none" xmlns="http://www.w3.org/2000/svg">
<g clip-path="url(#clip0_318_3437)">
<path d="M22.4995 10.2208H20.8645C20.6473 9.33618 20.2957 8.49011 19.822 7.71206L20.9995 6.55331C21.0693 6.48367 21.1246 6.40095 21.1623 6.3099C21.2001 6.21885 21.2195 6.12123 21.2195 6.02268C21.2195 5.92413 21.2001 5.82652 21.1623 5.73547C21.1246 5.64442 21.0693 5.5617 20.9995 5.49206L18.9295 3.44081C18.7861 3.30525 18.5962 3.22973 18.3989 3.22973C18.2015 3.22973 18.0117 3.30525 17.8683 3.44081L16.7095 4.59956C15.9315 4.12586 15.0854 3.77428 14.2008 3.55706V1.92206C14.2008 1.72315 14.1217 1.53238 13.9811 1.39173C13.8404 1.25107 13.6497 1.17206 13.4508 1.17206H10.5483C10.3494 1.17206 10.1586 1.25107 10.0179 1.39173C9.87727 1.53238 9.79826 1.72315 9.79826 1.92206V3.55706C8.91364 3.77428 8.06756 4.12586 7.28951 4.59956L6.13076 3.44081C6.06112 3.37108 5.9784 3.31576 5.88735 3.27801C5.7963 3.24027 5.69869 3.22084 5.60014 3.22084C5.50159 3.22084 5.40397 3.24027 5.31292 3.27801C5.22187 3.31576 5.13915 3.37108 5.06951 3.44081L3.01826 5.49206C2.94853 5.5617 2.89321 5.64442 2.85547 5.73547C2.81772 5.82652 2.7983 5.92413 2.7983 6.02268C2.7983 6.12123 2.81772 6.21885 2.85547 6.3099C2.89321 6.40095 2.94853 6.48367 3.01826 6.55331L4.17701 7.71206C3.70332 8.49011 3.35173 9.33618 3.13451 10.2208H1.49951C1.3006 10.2208 1.10983 10.2998 0.969183 10.4405C0.828528 10.5811 0.749512 10.7719 0.749512 10.9708V13.8733C0.749512 14.0722 0.828528 14.263 0.969183 14.4036C1.10983 14.5443 1.3006 14.6233 1.49951 14.6233H3.13451C3.35173 15.5079 3.70332 16.354 4.17701 17.1321L3.01826 18.2908C2.94853 18.3604 2.89321 18.4432 2.85547 18.5342C2.81772 18.6253 2.7983 18.7229 2.7983 18.8214C2.7983 18.92 2.81772 19.0176 2.85547 19.1086C2.89321 19.1997 2.94853 19.2824 3.01826 19.3521L5.06951 21.4221C5.13915 21.4918 5.22187 21.5471 5.31292 21.5848C5.40397 21.6226 5.50159 21.642 5.60014 21.642C5.69869 21.642 5.7963 21.6226 5.88735 21.5848C5.9784 21.5471 6.06112 21.4918 6.13076 21.4221L7.28951 20.2633C8.06756 20.737 8.91364 21.0886 9.79826 21.3058V22.9221C9.79826 23.121 9.87727 23.3117 10.0179 23.4524C10.1586 23.593 10.3494 23.6721 10.5483 23.6721H13.4508C13.6497 23.6721 13.8404 23.593 13.9811 23.4524C14.1217 23.3117 14.2008 23.121 14.2008 22.9221V21.2871C15.0854 21.0699 15.9315 20.7183 16.7095 20.2446L17.8683 21.4221C17.9379 21.4918 18.0206 21.5471 18.1117 21.5848C18.2027 21.6226 18.3003 21.642 18.3989 21.642C18.4974 21.642 18.595 21.6226 18.6861 21.5848C18.7771 21.5471 18.8599 21.4918 18.9295 21.4221L20.9995 19.3521C21.0693 19.2824 21.1246 19.1997 21.1623 19.1086C21.2001 19.0176 21.2195 18.92 21.2195 18.8214C21.2195 18.7229 21.2001 18.6253 21.1623 18.5342C21.1246 18.4432 21.0693 18.3604 20.9995 18.2908L19.8408 17.1321C20.3145 16.354 20.6661 15.5079 20.8833 14.6233H22.4995C22.6984 14.6233 22.8892 14.5443 23.0298 14.4036C23.1705 14.263 23.2495 14.0722 23.2495 13.8733V10.9708C23.2495 10.7719 23.1705 10.5811 23.0298 10.4405C22.8892 10.2998 22.6984 10.2208 22.4995 10.2208ZM11.9995 16.4833C10.9227 16.4823 9.89029 16.0541 9.12889 15.2927C8.36745 14.5313 7.93924 13.4989 7.93826 12.4221C8.15951 7.03331 15.8395 7.03331 16.0608 12.4221C16.0598 13.4989 15.6316 14.5313 14.8701 15.2927C14.1087 16.0541 13.0763 16.4823 11.9995 16.4833Z" fill="#0D084D"/>
</g>
<defs>
<clipPath id="clip0_318_3437">
<rect width="24" height="24" fill="white" transform="translate(-0.000488281 0.422058)"/>
</clipPath>
</defs>
</svg>
