<svg width="24" height="24" viewBox="0 0 24 24" fill="none" xmlns="http://www.w3.org/2000/svg">
<path d="M22.3555 9.85505H20.7205C20.5033 8.97042 20.1517 8.12435 19.678 7.3463L20.8555 6.18755C20.9252 6.11791 20.9805 6.03518 21.0183 5.94413C21.056 5.85308 21.0754 5.75547 21.0754 5.65692C21.0754 5.55837 21.056 5.46076 21.0183 5.36971C20.9805 5.27866 20.9252 5.19593 20.8555 5.1263L18.7855 3.07505C18.642 2.93949 18.4522 2.86397 18.2548 2.86397C18.0575 2.86397 17.8677 2.93949 17.7242 3.07505L16.5655 4.2338C15.7874 3.7601 14.9413 3.40852 14.0567 3.1913V1.5563C14.0567 1.35739 13.9777 1.16662 13.837 1.02597C13.6964 0.885314 13.5056 0.806297 13.3067 0.806297H10.4042C10.2053 0.806297 10.0146 0.885314 9.87389 1.02597C9.73323 1.16662 9.65422 1.35739 9.65422 1.5563V3.1913C8.76959 3.40852 7.92352 3.7601 7.14547 4.2338L5.98672 3.07505C5.91708 3.00532 5.83436 2.95 5.74331 2.91225C5.65226 2.87451 5.55464 2.85508 5.45609 2.85508C5.35754 2.85508 5.25993 2.87451 5.16888 2.91225C5.07783 2.95 4.99511 3.00532 4.92547 3.07505L2.87422 5.1263C2.80449 5.19593 2.74917 5.27866 2.71142 5.36971C2.67368 5.46076 2.65425 5.55837 2.65425 5.65692C2.65425 5.75547 2.67368 5.85308 2.71142 5.94413C2.74917 6.03518 2.80449 6.11791 2.87422 6.18755L4.03297 7.3463C3.55927 8.12435 3.20769 8.97042 2.99047 9.85505H1.35547C1.15656 9.85505 0.965791 9.93406 0.82514 10.0747C0.684485 10.2154 0.605469 10.4061 0.605469 10.605V13.5075C0.605469 13.7064 0.684485 13.8972 0.82514 14.0379C0.965791 14.1785 1.15656 14.2575 1.35547 14.2575H2.99047C3.20769 15.1422 3.55927 15.9882 4.03297 16.7663L2.87422 17.925C2.80449 17.9947 2.74917 18.0774 2.71142 18.1685C2.67368 18.2595 2.65425 18.3571 2.65425 18.4557C2.65425 18.5542 2.67368 18.6518 2.71142 18.7429C2.74917 18.8339 2.80449 18.9167 2.87422 18.9863L4.92547 21.0563C4.99511 21.126 5.07783 21.1814 5.16888 21.2191C5.25993 21.2568 5.35754 21.2763 5.45609 21.2763C5.55464 21.2763 5.65226 21.2568 5.74331 21.2191C5.83436 21.1814 5.91708 21.126 5.98672 21.0563L7.14547 19.8975C7.92352 20.3712 8.76959 20.7228 9.65422 20.94V22.5563C9.65422 22.7552 9.73323 22.946 9.87389 23.0866C10.0146 23.2273 10.2053 23.3063 10.4042 23.3063H13.3067C13.5056 23.3063 13.6964 23.2273 13.837 23.0866C13.9777 22.946 14.0567 22.7552 14.0567 22.5563V20.9213C14.9413 20.7041 15.7874 20.3525 16.5655 19.8788L17.7242 21.0563C17.7939 21.126 17.8766 21.1814 17.9676 21.2191C18.0587 21.2568 18.1563 21.2763 18.2548 21.2763C18.3534 21.2763 18.451 21.2568 18.5421 21.2191C18.6331 21.1814 18.7158 21.126 18.7855 21.0563L20.8555 18.9863C20.9252 18.9167 20.9805 18.8339 21.0183 18.7429C21.056 18.6518 21.0754 18.5542 21.0754 18.4557C21.0754 18.3571 21.056 18.2595 21.0183 18.1685C20.9805 18.0774 20.9252 17.9947 20.8555 17.925L19.6967 16.7663C20.1704 15.9882 20.522 15.1422 20.7392 14.2575H22.3555C22.5544 14.2575 22.7451 14.1785 22.8858 14.0379C23.0265 13.8972 23.1055 13.7064 23.1055 13.5075V10.605C23.1055 10.4061 23.0265 10.2154 22.8858 10.0747C22.7451 9.93406 22.5544 9.85505 22.3555 9.85505ZM11.8555 16.1175C10.7787 16.1166 9.74624 15.6884 8.98484 14.9269C8.22341 14.1655 7.79519 13.1331 7.79422 12.0563C8.01547 6.66755 15.6955 6.66755 15.9167 12.0563C15.9157 13.1331 15.4875 14.1655 14.7261 14.9269C13.9647 15.6884 12.9323 16.1166 11.8555 16.1175Z" fill="#F4F9FF"/>
</svg>
