<svg width="24" height="25" viewBox="0 0 24 25" fill="none" xmlns="http://www.w3.org/2000/svg">
<path d="M15.0002 14.3245H9.00024C7.14373 14.3245 5.36325 15.062 4.0505 16.3747C2.73774 17.6875 2.00024 19.4679 2.00024 21.3245C2.00024 21.5897 2.1056 21.844 2.29314 22.0316C2.48067 22.2191 2.73503 22.3245 3.00024 22.3245H21.0002C21.2655 22.3245 21.5198 22.2191 21.7074 22.0316C21.8949 21.844 22.0002 21.5897 22.0002 21.3245C22.0002 19.4679 21.2627 17.6875 19.95 16.3747C18.6372 15.062 16.8568 14.3245 15.0002 14.3245Z" fill="#F4F9FF"/>
<path d="M12 13.3245C15.0376 13.3245 17.5 10.862 17.5 7.82446C17.5 4.7869 15.0376 2.32446 12 2.32446C8.96243 2.32446 6.5 4.7869 6.5 7.82446C6.5 10.862 8.96243 13.3245 12 13.3245Z" fill="#F4F9FF"/>
</svg>
