<svg width="24" height="25" viewBox="0 0 24 25" fill="none" xmlns="http://www.w3.org/2000/svg">
<path d="M15 14.2306H9C7.14348 14.2306 5.36301 14.9681 4.05025 16.2809C2.7375 17.5936 2 19.3741 2 21.2306C2 21.4958 2.10536 21.7502 2.29289 21.9377C2.48043 22.1253 2.73478 22.2306 3 22.2306H21C21.2652 22.2306 21.5196 22.1253 21.7071 21.9377C21.8946 21.7502 22 21.4958 22 21.2306C22 19.3741 21.2625 17.5936 19.9497 16.2809C18.637 14.9681 16.8565 14.2306 15 14.2306Z" fill="#0D084D"/>
<path d="M12 13.2306C15.0376 13.2306 17.5 10.7682 17.5 7.73062C17.5 4.69306 15.0376 2.23062 12 2.23062C8.96243 2.23062 6.5 4.69306 6.5 7.73062C6.5 10.7682 8.96243 13.2306 12 13.2306Z" fill="#0D084D"/>
</svg>
