<svg width="33" height="34" viewBox="0 0 33 34" fill="none" xmlns="http://www.w3.org/2000/svg">
<path d="M9.74687 32.0676C9.49533 30.9602 8.97338 28.4606 8.89791 27.3216C7.09471 26.2452 3.5284 23.1412 3.04957 18.7787C3.04102 18.7009 3.04632 18.5861 3.04956 18.4797L3.04955 18.3041C3.49578 17.0693 4.93556 17.278 5.5021 18.3041C5.97374 19.1584 7.8603 23.8095 11.8221 24.2841C13.237 24.3791 16.1046 24.6069 16.2555 24.7587C16.8215 24.8537 18.0855 25.4991 18.6137 27.3216C19.142 29.1441 19.5885 31.245 19.7457 32.0676H16.9158L16.2555 29.5048H15.6896L16.0669 32.0676H9.74687Z" fill="#F4F9FF"/>
<ellipse cx="12.6997" cy="20.1945" rx="3.13139" ry="3.26186" fill="#F4F9FF"/>
<path d="M23.4435 31.5811H20.6612C20.2565 28.3323 19.3122 26.1101 18.8906 25.4051L21.1671 25.3205C24.1348 24.8468 26.001 21.9083 26.563 20.4982C26.9003 19.906 27.1532 19.6522 27.8277 19.6522C28.4795 19.6522 28.7907 20.4347 28.6985 21.0058C28.1247 24.5589 25.2714 26.9024 23.865 27.6894C23.9325 28.2308 23.6121 30.5094 23.4435 31.5811Z" fill="#F4F9FF"/>
<circle cx="20.802" cy="21.8026" r="2.62819" fill="#F4F9FF"/>
<path d="M13.0813 3.00303C6.27292 4.42346 1.1582 10.463 1.1582 17.698C1.1582 25.9883 7.87393 32.709 16.1582 32.709C24.4425 32.709 31.1582 25.9883 31.1582 17.698C31.1582 10.4176 25.9792 4.3478 19.1069 2.97687" stroke="#F4F9FF" stroke-width="2"/>
<path fill-rule="evenodd" clip-rule="evenodd" d="M14.3262 7.35442V0.851282C14.1974 0.839885 14.0667 0.834045 13.9344 0.834045C11.8402 0.834045 10.1426 2.29754 10.1426 4.10285C10.1426 5.90816 11.8402 7.37166 13.9344 7.37166C14.0667 7.37166 14.1974 7.36582 14.3262 7.35442Z" fill="#F4F9FF"/>
<path fill-rule="evenodd" clip-rule="evenodd" d="M18.7754 7.35442V0.851282C18.9042 0.839885 19.0349 0.834045 19.1672 0.834045C21.2613 0.834045 22.959 2.29754 22.959 4.10285C22.959 5.90816 21.2613 7.37166 19.1672 7.37166C19.0349 7.37166 18.9042 7.36582 18.7754 7.35442Z" fill="#F4F9FF"/>
<rect x="16.6816" y="2.14154" width="2.09204" height="1.04602" fill="#F4F9FF"/>
<rect x="16.6816" y="5.01813" width="2.09204" height="1.04602" fill="#F4F9FF"/>
</svg>
