<svg width="305" height="104" viewBox="0 0 305 104" fill="none" xmlns="http://www.w3.org/2000/svg">
<path d="M122.832 34.2429L128.918 60.5002L136.213 34.2429H140.959L148.254 60.5002L154.341 34.2429H159.131L150.649 66.5208H146.057L138.608 39.7581L131.116 66.5208H126.523L118.086 34.2429H122.832ZM171.216 63.9719C173.838 63.9719 175.632 62.9832 176.599 61.0056C177.581 59.0134 178.071 56.8015 178.071 54.3699C178.071 52.1726 177.72 50.3855 177.017 49.0085C175.903 46.8406 173.984 45.7566 171.26 45.7566C168.843 45.7566 167.085 46.6794 165.986 48.5251C164.888 50.3708 164.338 52.5974 164.338 55.2048C164.338 57.7097 164.888 59.7971 165.986 61.467C167.085 63.137 168.828 63.9719 171.216 63.9719ZM171.37 42.3069C174.402 42.3069 176.965 43.3176 179.06 45.3391C181.155 47.3606 182.202 50.3342 182.202 54.26C182.202 58.054 181.279 61.1887 179.434 63.6643C177.588 66.1399 174.724 67.3777 170.842 67.3777C167.605 67.3777 165.034 66.2864 163.13 64.1038C161.226 61.9065 160.273 58.9622 160.273 55.2708C160.273 51.3157 161.277 48.1663 163.284 45.8225C165.29 43.4788 167.986 42.3069 171.37 42.3069ZM187.036 42.988H190.793V47.053C191.101 46.262 191.855 45.3025 193.057 44.1746C194.258 43.032 195.642 42.4607 197.209 42.4607C197.283 42.4607 197.407 42.468 197.583 42.4827C197.759 42.4973 198.059 42.5266 198.484 42.5706V46.7454C198.249 46.7014 198.03 46.6721 197.825 46.6575C197.634 46.6428 197.422 46.6355 197.187 46.6355C195.195 46.6355 193.665 47.28 192.595 48.5691C191.526 49.8435 190.991 51.3157 190.991 52.9856V66.5208H187.036V42.988ZM201.824 34.2429H205.625V52.9856L215.776 42.988H220.83L211.821 51.7991L221.335 66.5208H216.282L208.943 54.6555L205.625 57.6877V66.5208H201.824V34.2429ZM225.049 34.2429H229.465V47.5803H246.252V34.2429H250.669V66.5208H246.252V51.4255H229.465V66.5208H225.049V34.2429ZM260.886 42.988V58.6106C260.886 59.8118 261.077 60.7932 261.457 61.5549C262.161 62.9612 263.472 63.6643 265.391 63.6643C268.145 63.6643 270.02 62.4338 271.016 59.9729C271.558 58.6545 271.829 56.8455 271.829 54.5457V42.988H275.784V66.5208H272.048L272.092 63.0491C271.58 63.9426 270.942 64.697 270.181 65.3123C268.672 66.5427 266.841 67.158 264.687 67.158C261.333 67.158 259.048 66.0374 257.832 63.7961C257.173 62.595 256.843 60.991 256.843 58.9841V42.988H260.886ZM281.672 34.1331H285.518V45.8445C286.382 44.7166 287.415 43.8596 288.616 43.2737C289.817 42.6731 291.121 42.3728 292.527 42.3728C295.457 42.3728 297.83 43.3835 299.646 45.405C301.477 47.4119 302.393 50.3782 302.393 54.304C302.393 58.0247 301.492 61.1155 299.69 63.5764C297.888 66.0374 295.391 67.2678 292.197 67.2678C290.41 67.2678 288.901 66.8357 287.671 65.9714C286.938 65.4587 286.155 64.6384 285.32 63.5105V66.5208H281.672V34.1331ZM291.956 63.7742C294.094 63.7742 295.691 62.9246 296.746 61.2253C297.815 59.5261 298.35 57.2849 298.35 54.5017C298.35 52.0261 297.815 49.9753 296.746 48.3494C295.691 46.7234 294.131 45.9104 292.065 45.9104C290.264 45.9104 288.682 46.5769 287.319 47.9099C285.972 49.2429 285.298 51.4402 285.298 54.5017C285.298 56.7136 285.576 58.5081 286.133 59.885C287.173 62.4778 289.114 63.7742 291.956 63.7742Z" fill="#0D084D"/>
<path d="M33.4735 75.4866C32.756 72.328 31.2673 65.1985 31.052 61.9496C25.9088 58.8793 15.7366 50.0259 14.3709 37.5829C14.3465 37.3607 14.3616 37.0334 14.3708 36.73L14.3708 36.2292C15.6436 32.7071 19.7503 33.3022 21.3662 36.2292C22.7114 38.6659 28.0925 51.9322 39.3926 53.2859C43.4284 53.5566 51.6076 54.2064 52.0381 54.6396C53.6524 54.9103 57.2577 56.7513 58.7644 61.9496C60.271 67.1478 61.5446 73.1402 61.993 75.4866H53.9214L52.0381 68.1766H50.4238L51.5 75.4866H33.4735Z" fill="#0D084D"/>
<path d="M74.2481 75.4858H65.3944C64.1065 65.1479 61.1016 58.0765 59.7602 55.833L67.0041 55.5638C76.4481 54.0562 82.3864 44.7055 84.175 40.2185C85.2482 38.334 86.0531 37.5264 88.1994 37.5264C90.2734 37.5264 91.2637 40.0164 90.9703 41.8338C89.1446 53.1403 80.0647 60.5975 75.5896 63.1019C75.8042 64.8249 74.7847 72.0757 74.2481 75.4858Z" fill="#0D084D"/>
<ellipse cx="41.8969" cy="41.6207" rx="8.93163" ry="9.30378" fill="#0D084D"/>
<circle cx="65.7144" cy="44.2254" r="8.18733" fill="#0D084D"/>
<path d="M41.332 7.08497C19.8537 11.566 3.71826 30.6188 3.71826 53.4431C3.71826 79.5967 24.9044 100.798 51.0387 100.798C77.1731 100.798 98.3592 79.5967 98.3592 53.4431C98.3592 30.4758 82.0209 11.3273 60.341 7.00244" stroke="#0D084D" stroke-width="6"/>
<path fill-rule="evenodd" clip-rule="evenodd" d="M45.2644 20.8126V0.297424C44.8576 0.261386 44.4448 0.24292 44.027 0.24292C37.4205 0.24292 32.0649 4.8598 32.0649 10.555C32.0649 16.2502 37.4205 20.8671 44.027 20.8671C44.4448 20.8671 44.8576 20.8487 45.2644 20.8126Z" fill="#0D084D"/>
<path fill-rule="evenodd" clip-rule="evenodd" d="M59.2888 20.8126V0.297425C59.6955 0.261387 60.1084 0.24292 60.5262 0.24292C67.1326 0.24292 72.4882 4.8598 72.4882 10.555C72.4882 16.2502 67.1326 20.8671 60.5262 20.8671C60.1084 20.8671 59.6955 20.8487 59.2888 20.8126Z" fill="#0D084D"/>
<rect x="52.6889" y="4.36792" width="6.59974" height="3.29987" fill="#0D084D"/>
<rect x="52.6889" y="13.4424" width="6.59974" height="3.29987" fill="#0D084D"/>
</svg>
