<svg width="43" height="44" viewBox="0 0 43 44" fill="none" xmlns="http://www.w3.org/2000/svg">
<path d="M14.1322 31.1795C13.8396 29.8916 13.2326 26.9847 13.1449 25.66C11.0478 24.4082 6.90028 20.7983 6.34342 15.7249C6.33348 15.6343 6.33964 15.5009 6.34341 15.3772L6.3434 15.173C6.86235 13.7369 8.53677 13.9796 9.19563 15.173C9.74414 16.1665 11.9382 21.5756 16.5456 22.1275C18.1911 22.2379 21.526 22.5028 21.7016 22.6795C22.3598 22.7899 23.8298 23.5405 24.4441 25.66C25.0584 27.7795 25.5777 30.2228 25.7605 31.1795H22.4695L21.7016 28.199H21.0434L21.4822 31.1795H14.1322Z" fill="#0D084D"/>
<path d="M30.7573 31.1792H27.1473C26.6223 26.9641 25.3971 24.0809 24.8501 23.1661L27.8037 23.0564C31.6543 22.4417 34.0755 18.6291 34.8048 16.7996C35.2424 16.0312 35.5706 15.7019 36.4457 15.7019C37.2913 15.7019 37.6951 16.7172 37.5755 17.4582C36.8311 22.0682 33.1289 25.1088 31.3043 26.1299C31.3918 26.8324 30.9761 29.7888 30.7573 31.1792Z" fill="#0D084D"/>
<ellipse cx="17.5667" cy="17.3712" rx="3.64172" ry="3.79345" fill="#0D084D"/>
<circle cx="27.2779" cy="18.4335" r="3.33824" fill="#0D084D"/>
<path d="M17.3363 3.29006C8.57892 5.11712 2 12.8856 2 22.1918C2 32.8554 10.6383 41.5 21.2941 41.5C31.9499 41.5 40.5882 32.8554 40.5882 22.1918C40.5882 12.8273 33.9265 5.01981 25.0869 3.25641" stroke="#0D084D" stroke-width="4"/>
<path fill-rule="evenodd" clip-rule="evenodd" d="M18.9397 8.88718V0.522466C18.7738 0.507773 18.6055 0.500244 18.4352 0.500244C15.7415 0.500244 13.5579 2.3827 13.5579 4.70482C13.5579 7.02694 15.7415 8.9094 18.4352 8.9094C18.6055 8.9094 18.7738 8.90187 18.9397 8.88718Z" fill="#0D084D"/>
<path fill-rule="evenodd" clip-rule="evenodd" d="M24.6579 8.88717V0.522468C24.8237 0.507774 24.9921 0.500244 25.1624 0.500244C27.8561 0.500244 30.0397 2.3827 30.0397 4.70482C30.0397 7.02694 27.8561 8.9094 25.1624 8.9094C24.9921 8.9094 24.8237 8.90187 24.6579 8.88717Z" fill="#0D084D"/>
<rect x="21.9669" y="2.18201" width="2.69093" height="1.34546" fill="#0D084D"/>
<rect x="21.9669" y="5.88202" width="2.69093" height="1.34546" fill="#0D084D"/>
</svg>
