<svg width="49" height="50" viewBox="0 0 49 50" fill="none" xmlns="http://www.w3.org/2000/svg">
<path d="M14.8478 46.9424C14.4705 45.2813 13.6876 41.532 13.5744 39.8234C10.8696 38.2088 5.52013 33.5528 4.8019 27.0091C4.78908 26.8923 4.79702 26.7201 4.80188 26.5606L4.80186 26.2972C5.47121 24.445 7.63088 24.758 8.48068 26.2972C9.18814 27.5786 12.018 34.5553 17.9607 35.2672C20.0831 35.4096 24.3844 35.7513 24.6108 35.9791C25.4598 36.1215 27.3558 37.0897 28.1481 39.8234C28.9405 42.5571 29.6102 45.7085 29.846 46.9424H25.6013L24.6108 43.0982H23.7619L24.3278 46.9424H14.8478Z" fill="#0D084D"/>
<ellipse cx="19.2772" cy="29.1327" rx="4.69708" ry="4.8928" fill="#0D084D"/>
<path d="M35.3918 46.2125H31.2183C30.6113 41.3395 29.1948 38.0062 28.5625 36.9486L31.9771 36.8217C36.4288 36.1111 39.228 31.7033 40.0711 29.5883C40.577 28.7 40.9564 28.3193 41.9681 28.3193C42.9458 28.3193 43.4126 29.493 43.2743 30.3497C42.4137 35.6794 38.1336 39.1945 36.0241 40.375C36.1253 41.1872 35.6447 44.6051 35.3918 46.2125Z" fill="#0D084D"/>
<circle cx="31.4306" cy="31.5448" r="3.94228" fill="#0D084D"/>
<path d="M19.8495 3.34552C9.63692 5.47616 1.96484 14.5354 1.96484 25.3879C1.96484 37.8235 12.0384 47.9045 24.4648 47.9045C36.8913 47.9045 46.9648 37.8235 46.9648 25.3879C46.9648 14.4674 39.1963 5.36268 28.8879 3.30627" stroke="#0D084D" stroke-width="3"/>
<path fill-rule="evenodd" clip-rule="evenodd" d="M21.7168 9.87261V0.117895C21.5236 0.100801 21.3276 0.092041 21.1291 0.092041C17.9879 0.092041 15.4414 2.28728 15.4414 4.99525C15.4414 7.70322 17.9879 9.89846 21.1291 9.89846C21.3276 9.89846 21.5236 9.8897 21.7168 9.87261Z" fill="#0D084D"/>
<path fill-rule="evenodd" clip-rule="evenodd" d="M28.3887 9.87261V0.117895C28.5819 0.100801 28.7779 0.092041 28.9763 0.092041C32.1176 0.092041 34.6641 2.28728 34.6641 4.99525C34.6641 7.70322 32.1176 9.89846 28.9763 9.89846C28.7779 9.89846 28.5819 9.8897 28.3887 9.87261Z" fill="#0D084D"/>
<rect x="25.25" y="2.05328" width="3.13805" height="1.56903" fill="#0D084D"/>
<rect x="25.25" y="6.36816" width="3.13805" height="1.56903" fill="#0D084D"/>
</svg>
