<svg width="65" height="67" viewBox="0 0 65 67" fill="none" xmlns="http://www.w3.org/2000/svg">
<path d="M19.523 62.8459C19.02 60.6311 17.9761 55.6319 17.8251 53.3538C14.2187 51.201 7.08609 44.9931 6.12844 36.2681C6.11135 36.1123 6.12193 35.8828 6.12841 35.6701L6.1284 35.3189C7.02086 32.8492 9.90042 33.2666 11.0335 35.3189C11.9768 37.0275 15.7499 46.3297 23.6735 47.2789C26.5033 47.4688 32.2385 47.9244 32.5403 48.2281C33.6723 48.418 36.2003 49.7089 37.2568 53.3538C38.3132 56.9988 39.2062 61.2006 39.5206 62.8459H33.8609L32.5403 57.7202H31.4084L32.163 62.8459H19.523Z" fill="#0D084D"/>
<ellipse cx="25.4288" cy="39.0995" rx="6.26278" ry="6.52373" fill="#0D084D"/>
<path d="M46.9143 61.8728H41.3497C40.5403 55.3754 38.6517 50.931 37.8086 49.521L42.3615 49.3518C48.297 48.4042 52.0293 42.5272 53.1534 39.7072C53.8279 38.5227 54.3338 38.0151 55.6828 38.0151C56.9863 38.0151 57.6087 39.5801 57.4243 40.7224C56.2768 47.8286 50.5701 52.5155 47.7574 54.0894C47.8923 55.1723 47.2516 59.7296 46.9143 61.8728Z" fill="#0D084D"/>
<circle cx="41.6314" cy="42.3158" r="5.25638" fill="#0D084D"/>
<path d="M26.1899 4.71681C12.5732 7.55767 2.34375 19.6367 2.34375 34.1067C2.34375 50.6874 15.7752 64.1288 32.3438 64.1288C48.9123 64.1288 62.3438 50.6874 62.3438 34.1067C62.3438 19.546 51.9857 7.40636 38.2412 4.66449" stroke="#0D084D" stroke-width="4"/>
<path fill-rule="evenodd" clip-rule="evenodd" d="M28.6819 13.4195V0.413281C28.4242 0.390472 28.1627 0.378784 27.8981 0.378784C23.7098 0.378784 20.3145 3.30577 20.3145 6.9164C20.3145 10.527 23.7098 13.454 27.8981 13.454C28.1627 13.454 28.4242 13.4423 28.6819 13.4195Z" fill="#0D084D"/>
<path fill-rule="evenodd" clip-rule="evenodd" d="M37.5737 13.4195V0.413299C37.8315 0.390478 38.093 0.378784 38.3578 0.378784C42.5461 0.378784 45.9414 3.30577 45.9414 6.9164C45.9414 10.527 42.5461 13.454 38.3578 13.454C38.093 13.454 37.8315 13.4423 37.5737 13.4195Z" fill="#0D084D"/>
<rect x="33.3887" y="2.99384" width="4.18407" height="2.09204" fill="#0D084D"/>
<rect x="33.3887" y="8.74695" width="4.18407" height="2.09204" fill="#0D084D"/>
</svg>
