<svg width="253" height="60" viewBox="0 0 253 60" fill="none" xmlns="http://www.w3.org/2000/svg">
<path d="M18.5274 56.7743C18.0718 54.7686 17.1264 50.2413 16.9897 48.1782C13.7237 46.2286 7.26435 40.6066 6.3971 32.7052C6.38161 32.5641 6.3912 32.3563 6.39707 32.1636L6.39705 31.8456C7.20528 29.609 9.81304 29.987 10.8392 31.8456C11.6934 33.3929 15.1104 41.8171 22.2861 42.6767C24.8488 42.8486 30.0426 43.2612 30.316 43.5363C31.3411 43.7082 33.6305 44.8773 34.5872 48.1782C35.544 51.4791 36.3527 55.2843 36.6374 56.7743H31.512L30.316 52.1324H29.2909L29.9743 56.7743H18.5274Z" fill="#0D084D"/>
<ellipse cx="23.8767" cy="35.2694" rx="5.67164" ry="5.90796" fill="#0D084D"/>
<path d="M43.3341 55.8932H38.2948C37.5618 50.0091 35.8514 45.9842 35.0879 44.7072L39.211 44.554C44.5863 43.6959 47.9663 38.3736 48.9843 35.8197C49.5952 34.7471 50.0533 34.2874 51.275 34.2874C52.4554 34.2874 53.0191 35.7047 52.8521 36.7391C51.8129 43.1746 46.6449 47.4191 44.0977 48.8445C44.2198 49.8252 43.6396 53.9522 43.3341 55.8932Z" fill="#0D084D"/>
<circle cx="38.5493" cy="38.1821" r="4.76024" fill="#0D084D"/>
<path d="M24.566 4.13204C12.2346 6.70475 2.9707 17.6436 2.9707 30.7478C2.9707 45.7635 15.1344 57.9362 30.139 57.9362C45.1437 57.9362 57.3074 45.7635 57.3074 30.7478C57.3074 17.5615 47.927 6.56773 35.4798 4.08466" stroke="#0D084D" stroke-width="4"/>
<path fill-rule="evenodd" clip-rule="evenodd" d="M26.8218 12.0133V0.234697C26.5884 0.214044 26.3516 0.203461 26.112 0.203461C22.319 0.203461 19.2441 2.85417 19.2441 6.124C19.2441 9.39382 22.319 12.0445 26.112 12.0445C26.3516 12.0445 26.5884 12.0339 26.8218 12.0133Z" fill="#0D084D"/>
<path fill-rule="evenodd" clip-rule="evenodd" d="M34.8755 12.0133V0.234697C35.1088 0.214044 35.3456 0.203461 35.5853 0.203461C39.3783 0.203461 42.4531 2.85417 42.4531 6.124C42.4531 9.39382 39.3783 12.0445 35.5853 12.0445C35.3456 12.0445 35.1088 12.0339 34.8755 12.0133Z" fill="#0D084D"/>
<rect x="31.0859" y="2.57169" width="3.78914" height="1.89457" fill="#0D084D"/>
<rect x="31.0859" y="7.7818" width="3.78914" height="1.89457" fill="#0D084D"/>
<path d="M74.8695 45.5635C74.1195 45.5635 73.4745 45.3835 72.9345 45.0235C72.3945 44.6335 71.9595 44.0335 71.6295 43.2235L65.1045 26.5735C64.8345 25.8535 64.7445 25.2235 64.8345 24.6835C64.9545 24.1135 65.2395 23.6635 65.6895 23.3335C66.1395 23.0035 66.7395 22.8385 67.4895 22.8385C68.1495 22.8385 68.6895 23.0035 69.1095 23.3335C69.5295 23.6335 69.8895 24.2185 70.1895 25.0885L75.6345 40.0735H74.5995L80.2245 24.7285C80.4645 24.0685 80.7795 23.5885 81.1695 23.2885C81.5895 22.9885 82.1295 22.8385 82.7895 22.8385C83.4495 22.8385 83.9895 23.0035 84.4095 23.3335C84.8295 23.6335 85.1445 24.0985 85.3545 24.7285L90.8895 40.0735H89.9445L95.4345 24.9535C95.7345 24.1435 96.1095 23.5885 96.5595 23.2885C97.0395 22.9885 97.5645 22.8385 98.1345 22.8385C98.8545 22.8385 99.4095 23.0185 99.7995 23.3785C100.189 23.7385 100.414 24.2035 100.474 24.7735C100.534 25.3135 100.429 25.9135 100.159 26.5735L93.6795 43.2235C93.3795 44.0035 92.9445 44.5885 92.3745 44.9785C91.8345 45.3685 91.1895 45.5635 90.4395 45.5635C89.6895 45.5635 89.0295 45.3685 88.4595 44.9785C87.9195 44.5885 87.4995 44.0035 87.1995 43.2235L81.3045 27.6085H83.8695L78.1095 43.1785C77.8095 43.9885 77.3895 44.5885 76.8495 44.9785C76.3095 45.3685 75.6495 45.5635 74.8695 45.5635ZM114.324 45.6535C112.044 45.6535 110.064 45.1885 108.384 44.2585C106.704 43.3285 105.399 42.0085 104.469 40.2985C103.539 38.5585 103.074 36.5185 103.074 34.1785C103.074 32.4085 103.329 30.8335 103.839 29.4535C104.379 28.0435 105.144 26.8435 106.134 25.8535C107.124 24.8335 108.309 24.0685 109.689 23.5585C111.069 23.0185 112.614 22.7485 114.324 22.7485C116.604 22.7485 118.584 23.2135 120.264 24.1435C121.944 25.0735 123.249 26.3935 124.179 28.1035C125.109 29.8135 125.574 31.8385 125.574 34.1785C125.574 35.9485 125.304 37.5385 124.764 38.9485C124.254 40.3585 123.504 41.5735 122.514 42.5935C121.524 43.5835 120.339 44.3485 118.959 44.8885C117.579 45.3985 116.034 45.6535 114.324 45.6535ZM114.324 41.3785C115.434 41.3785 116.409 41.1085 117.249 40.5685C118.089 40.0285 118.734 39.2335 119.184 38.1835C119.664 37.1035 119.904 35.7685 119.904 34.1785C119.904 31.7785 119.394 29.9935 118.374 28.8235C117.354 27.6235 116.004 27.0235 114.324 27.0235C113.214 27.0235 112.239 27.2935 111.399 27.8335C110.559 28.3435 109.899 29.1385 109.419 30.2185C108.969 31.2685 108.744 32.5885 108.744 34.1785C108.744 36.5485 109.254 38.3485 110.274 39.5785C111.294 40.7785 112.644 41.3785 114.324 41.3785ZM133.097 45.5635C132.167 45.5635 131.447 45.3235 130.937 44.8435C130.457 44.3335 130.217 43.6135 130.217 42.6835V25.6735C130.217 24.7435 130.457 24.0385 130.937 23.5585C131.417 23.0785 132.092 22.8385 132.962 22.8385C133.832 22.8385 134.507 23.0785 134.987 23.5585C135.467 24.0385 135.707 24.7435 135.707 25.6735V28.5085H135.257C135.677 26.7085 136.502 25.3435 137.732 24.4135C138.962 23.4835 140.597 22.9285 142.637 22.7485C143.267 22.6885 143.762 22.8535 144.122 23.2435C144.512 23.6035 144.737 24.1735 144.797 24.9535C144.857 25.7035 144.677 26.3185 144.257 26.7985C143.867 27.2485 143.267 27.5185 142.457 27.6085L141.467 27.6985C139.637 27.8785 138.257 28.4485 137.327 29.4085C136.397 30.3385 135.932 31.6585 135.932 33.3685V42.6835C135.932 43.6135 135.692 44.3335 135.212 44.8435C134.732 45.3235 134.027 45.5635 133.097 45.5635ZM150.629 45.5635C149.729 45.5635 149.039 45.3235 148.559 44.8435C148.079 44.3335 147.839 43.6135 147.839 42.6835V15.9535C147.839 15.0235 148.079 14.3185 148.559 13.8385C149.039 13.3585 149.729 13.1185 150.629 13.1185C151.529 13.1185 152.219 13.3585 152.699 13.8385C153.209 14.3185 153.464 15.0235 153.464 15.9535V32.5585H153.554L160.979 24.7285C161.579 24.1285 162.104 23.6635 162.554 23.3335C163.004 23.0035 163.619 22.8385 164.399 22.8385C165.179 22.8385 165.764 23.0485 166.154 23.4685C166.574 23.8585 166.784 24.3385 166.784 24.9085C166.784 25.4785 166.514 26.0485 165.974 26.6185L158.144 34.8985V32.5585L166.739 41.8285C167.279 42.3985 167.519 42.9835 167.459 43.5835C167.429 44.1535 167.189 44.6335 166.739 45.0235C166.289 45.3835 165.719 45.5635 165.029 45.5635C164.189 45.5635 163.514 45.3985 163.004 45.0685C162.524 44.7385 161.984 44.2435 161.384 43.5835L153.554 35.3935H153.464V42.6835C153.464 44.6035 152.519 45.5635 150.629 45.5635ZM174.755 45.5635C173.855 45.5635 173.165 45.3235 172.685 44.8435C172.205 44.3335 171.965 43.6135 171.965 42.6835V15.9535C171.965 15.0235 172.205 14.3185 172.685 13.8385C173.165 13.3585 173.855 13.1185 174.755 13.1185C175.655 13.1185 176.345 13.3585 176.825 13.8385C177.335 14.3185 177.59 15.0235 177.59 15.9535V27.6085H176.96C177.62 26.0185 178.64 24.8185 180.02 24.0085C181.43 23.1685 183.02 22.7485 184.79 22.7485C186.56 22.7485 188.015 23.0785 189.155 23.7385C190.295 24.3985 191.15 25.4035 191.72 26.7535C192.29 28.0735 192.575 29.7535 192.575 31.7935V42.6835C192.575 43.6135 192.335 44.3335 191.855 44.8435C191.375 45.3235 190.685 45.5635 189.785 45.5635C188.885 45.5635 188.18 45.3235 187.67 44.8435C187.19 44.3335 186.95 43.6135 186.95 42.6835V32.0635C186.95 30.3535 186.62 29.1085 185.96 28.3285C185.33 27.5485 184.34 27.1585 182.99 27.1585C181.34 27.1585 180.02 27.6835 179.03 28.7335C178.07 29.7535 177.59 31.1185 177.59 32.8285V42.6835C177.59 44.6035 176.645 45.5635 174.755 45.5635ZM206.253 45.6535C204.423 45.6535 202.908 45.3235 201.708 44.6635C200.508 43.9735 199.608 42.9535 199.008 41.6035C198.438 40.2535 198.153 38.5735 198.153 36.5635V25.6735C198.153 24.7135 198.393 24.0085 198.873 23.5585C199.353 23.0785 200.043 22.8385 200.943 22.8385C201.843 22.8385 202.533 23.0785 203.013 23.5585C203.523 24.0085 203.778 24.7135 203.778 25.6735V36.6535C203.778 38.2135 204.093 39.3685 204.723 40.1185C205.353 40.8685 206.358 41.2435 207.738 41.2435C209.238 41.2435 210.468 40.7335 211.428 39.7135C212.388 38.6635 212.868 37.2835 212.868 35.5735V25.6735C212.868 24.7135 213.108 24.0085 213.588 23.5585C214.068 23.0785 214.758 22.8385 215.658 22.8385C216.558 22.8385 217.248 23.0785 217.728 23.5585C218.238 24.0085 218.493 24.7135 218.493 25.6735V42.6835C218.493 44.6035 217.578 45.5635 215.748 45.5635C214.878 45.5635 214.203 45.3235 213.723 44.8435C213.243 44.3335 213.003 43.6135 213.003 42.6835V39.2635L213.633 40.6135C213.003 42.2335 212.043 43.4785 210.753 44.3485C209.493 45.2185 207.993 45.6535 206.253 45.6535ZM237.038 45.6535C235.178 45.6535 233.543 45.1885 232.133 44.2585C230.753 43.3285 229.838 42.0835 229.388 40.5235L229.883 39.3985V42.6835C229.883 43.6135 229.643 44.3335 229.163 44.8435C228.683 45.3235 228.008 45.5635 227.138 45.5635C226.238 45.5635 225.548 45.3235 225.068 44.8435C224.588 44.3335 224.348 43.6135 224.348 42.6835V15.9535C224.348 15.0235 224.588 14.3185 225.068 13.8385C225.548 13.3585 226.238 13.1185 227.138 13.1185C228.038 13.1185 228.728 13.3585 229.208 13.8385C229.718 14.3185 229.973 15.0235 229.973 15.9535V27.6535H229.433C229.913 26.1835 230.843 24.9985 232.223 24.0985C233.603 23.1985 235.208 22.7485 237.038 22.7485C238.988 22.7485 240.683 23.2135 242.123 24.1435C243.563 25.0735 244.688 26.3935 245.498 28.1035C246.308 29.7835 246.713 31.8085 246.713 34.1785C246.713 36.5185 246.308 38.5585 245.498 40.2985C244.688 42.0085 243.548 43.3285 242.078 44.2585C240.638 45.1885 238.958 45.6535 237.038 45.6535ZM235.463 41.3785C236.573 41.3785 237.548 41.1085 238.388 40.5685C239.228 40.0285 239.873 39.2335 240.323 38.1835C240.803 37.1035 241.043 35.7685 241.043 34.1785C241.043 31.7785 240.533 29.9935 239.513 28.8235C238.493 27.6235 237.143 27.0235 235.463 27.0235C234.353 27.0235 233.378 27.2935 232.538 27.8335C231.698 28.3435 231.038 29.1385 230.558 30.2185C230.108 31.2685 229.883 32.5885 229.883 34.1785C229.883 36.5485 230.393 38.3485 231.413 39.5785C232.433 40.7785 233.783 41.3785 235.463 41.3785Z" fill="#0D084D"/>
</svg>
