<svg width="211" height="71" viewBox="0 0 211 71" fill="none" xmlns="http://www.w3.org/2000/svg">
<g clip-path="url(#clip0_160_8304)">
<path fill-rule="evenodd" clip-rule="evenodd" d="M193.454 0.917464H17.404C16.7622 0.917464 16.1282 0.917464 15.4882 0.920964C14.9524 0.924464 14.4209 0.934631 13.88 0.943189C12.7049 0.957017 11.5326 1.0604 10.3732 1.25243C9.21543 1.44865 8.09394 1.81857 7.04665 2.34968C6.00064 2.88529 5.04487 3.58126 4.21401 4.41234C3.37879 5.24108 2.68257 6.19899 2.15212 7.24924C1.62021 8.2974 1.25138 9.42061 1.05837 10.5801C0.863531 11.738 0.758684 12.9094 0.744774 14.0836C0.728534 14.6201 0.726819 15.1584 0.718262 15.6951V56.145C0.726819 56.6884 0.728534 57.2148 0.744774 57.7583C0.758688 58.9325 0.863535 60.1037 1.05837 61.2617C1.25085 62.4218 1.6197 63.5456 2.15212 64.5942C2.68233 65.641 3.37865 66.5951 4.21401 67.4192C5.04172 68.254 5.9981 68.9504 7.04665 69.4819C8.09393 70.0145 9.2153 70.3866 10.3732 70.5858C11.5328 70.7763 12.705 70.8798 13.88 70.8952C14.4209 70.9071 14.9524 70.914 15.4882 70.914C16.1282 70.9175 16.7623 70.9175 17.404 70.9175H193.454C194.083 70.9175 194.722 70.9175 195.351 70.914C195.884 70.914 196.431 70.9071 196.964 70.8952C198.137 70.8806 199.307 70.7772 200.464 70.5858C201.626 70.3852 202.751 70.0132 203.804 69.4819C204.851 68.9501 205.807 68.2537 206.634 67.4192C207.467 66.5919 208.165 65.6385 208.702 64.5942C209.23 63.5449 209.595 62.4211 209.785 61.2617C209.98 60.1036 210.089 58.9326 210.11 57.7583C210.117 57.2148 210.117 56.6884 210.117 56.145C210.13 55.5092 210.13 54.877 210.13 54.2309V17.6057C210.13 16.9648 210.13 16.3291 210.117 15.6951C210.117 15.1584 210.117 14.6201 210.11 14.0835C210.089 12.9092 209.98 11.7381 209.785 10.58C209.595 9.42121 209.23 8.29809 208.702 7.24917C207.621 5.14406 205.909 3.43051 203.804 2.34952C202.751 1.81971 201.626 1.44988 200.464 1.25227C199.307 1.05939 198.137 0.955977 196.964 0.942944C196.431 0.934404 195.884 0.924149 195.351 0.920736C194.722 0.917236 194.083 0.917464 193.454 0.917464Z" fill="#A6A6A6"/>
<path fill-rule="evenodd" clip-rule="evenodd" d="M15.4967 69.386C14.9635 69.386 14.4432 69.3792 13.9142 69.3673C12.8183 69.353 11.725 69.2576 10.6432 69.0818C9.6345 68.9081 8.65732 68.5849 7.74392 68.123C6.83889 67.6649 6.01344 67.0642 5.29917 66.344C4.57457 65.6322 3.9713 64.8067 3.51328 63.9001C3.05021 62.9876 2.72974 62.0096 2.56303 61C2.383 59.9152 2.28559 58.8183 2.27165 57.7187C2.26056 57.3497 2.24603 56.1208 2.24603 56.1208V15.6948C2.24603 15.6948 2.2615 14.4849 2.27174 14.1294C2.28509 13.0316 2.38192 11.9364 2.56142 10.8533C2.72844 9.84092 3.04915 8.86005 3.51247 7.94459C3.96881 7.03864 4.56873 6.21249 5.28897 5.49818C6.0084 4.77707 6.8365 4.17329 7.74306 3.70885C8.65437 3.2484 9.62969 2.92752 10.6364 2.75696C11.7217 2.57945 12.8188 2.48348 13.9185 2.46985L15.4976 2.44849H195.343L196.94 2.47071C198.03 2.48366 199.117 2.57877 200.193 2.75524C201.21 2.92794 202.195 3.25106 203.117 3.71398C204.933 4.64996 206.411 6.13077 207.343 7.94886C207.799 8.858 208.115 9.83087 208.28 10.8345C208.461 11.9265 208.563 13.0303 208.584 14.1371C208.589 14.6327 208.589 15.165 208.589 15.6948C208.603 16.3511 208.603 16.9757 208.603 17.6055V54.2306C208.603 54.8664 208.603 55.4868 208.589 56.1122C208.589 56.6813 208.589 57.2027 208.582 57.7392C208.562 58.8263 208.462 59.9104 208.283 60.9828C208.12 61.9997 207.801 62.9854 207.338 63.9053C206.877 64.8021 206.277 65.6205 205.561 66.3303C204.846 67.0544 204.019 67.6586 203.112 68.1197C202.192 68.5852 201.208 68.9095 200.193 69.0818C199.111 69.2585 198.018 69.3539 196.922 69.3673C196.409 69.3792 195.872 69.386 195.351 69.386L193.454 69.3895L15.4967 69.386Z" fill="black"/>
<path fill-rule="evenodd" clip-rule="evenodd" d="M65.7411 17.9963V25.0422H67.8114C68.8708 25.0422 69.6094 24.5173 70.0274 23.4675C70.2558 22.8914 70.37 22.2053 70.37 21.4094C70.37 20.3108 70.1987 19.4673 69.8561 18.8789C69.5135 18.2905 68.8319 17.9963 67.8114 17.9963H65.7411ZM68.1904 16.1213C68.8562 16.1311 69.4102 16.2092 69.8524 16.3557C70.6057 16.6047 71.2156 17.0613 71.6821 17.7253C72.0563 18.2625 72.3114 18.8435 72.4475 19.4685C72.5836 20.0935 72.6516 20.6892 72.6516 21.2556C72.6516 22.6912 72.3649 23.907 71.7914 24.9031C71.0139 26.2459 69.8136 26.9172 68.1904 26.9172H63.5616V16.1213H68.1904ZM77.7397 25.4451C78.3471 25.4451 78.8137 25.2278 79.1393 24.7932C79.4649 24.3586 79.6277 23.741 79.6277 22.9402C79.6277 22.1394 79.4649 21.523 79.1393 21.0908C78.8137 20.6587 78.3471 20.4426 77.7397 20.4426C77.1322 20.4426 76.6645 20.6587 76.3364 21.0908C76.0084 21.523 75.8444 22.1394 75.8444 22.9402C75.8444 23.741 76.0084 24.3586 76.3364 24.7932C76.6645 25.2278 77.1322 25.4451 77.7397 25.4451ZM81.8072 22.9402C81.8072 24.1121 81.4719 25.1143 80.8013 25.9468C80.1306 26.7793 79.1125 27.1956 77.747 27.1956C76.3814 27.1956 75.3633 26.7793 74.6927 25.9468C74.022 25.1143 73.6867 24.1121 73.6867 22.9402C73.6867 21.7878 74.022 20.7893 74.6927 19.9446C75.3633 19.0998 76.3814 18.6775 77.747 18.6775C79.1125 18.6775 80.1306 19.0998 80.8013 19.9446C81.4719 20.7893 81.8072 21.7878 81.8072 22.9402ZM87.0411 18.9338H89.1478L90.3578 24.6833L91.597 18.9338H93.762L91.4585 26.9172H89.3227L88.0762 21.1018L86.8151 26.9172H84.6574L82.4268 18.9338H84.6574L85.8966 24.6614L87.0411 18.9338ZM99.3093 18.7434C100.131 18.7434 100.802 18.9595 101.325 19.3916C101.847 19.8237 102.108 20.5403 102.108 21.5413V26.9172H99.98V22.0613C99.98 21.6414 99.9241 21.3191 99.8123 21.0945C99.6082 20.6843 99.2194 20.4792 98.646 20.4792C97.9413 20.4792 97.4578 20.7795 97.1954 21.3801C97.0593 21.6975 96.9913 22.1028 96.9913 22.5959V26.9172H94.921V18.9485H96.9257V20.113C97.1929 19.7029 97.4456 19.4075 97.6838 19.2268C98.1114 18.9045 98.6533 18.7434 99.3093 18.7434ZM106.147 26.9172H104.069V16.1213H106.147V26.9172ZM111.738 25.4451C112.345 25.4451 112.812 25.2278 113.138 24.7932C113.463 24.3586 113.626 23.741 113.626 22.9402C113.626 22.1394 113.463 21.523 113.138 21.0908C112.812 20.6587 112.345 20.4426 111.738 20.4426C111.13 20.4426 110.663 20.6587 110.335 21.0908C110.007 21.523 109.843 22.1394 109.843 22.9402C109.843 23.741 110.007 24.3586 110.335 24.7932C110.663 25.2278 111.13 25.4451 111.738 25.4451ZM115.805 22.9402C115.805 24.1121 115.47 25.1143 114.8 25.9468C114.129 26.7793 113.111 27.1956 111.745 27.1956C110.38 27.1956 109.362 26.7793 108.691 25.9468C108.02 25.1143 107.685 24.1121 107.685 22.9402C107.685 21.7878 108.02 20.7893 108.691 19.9446C109.362 19.0998 110.38 18.6775 111.745 18.6775C113.111 18.6775 114.129 19.0998 114.8 19.9446C115.47 20.7893 115.805 21.7878 115.805 22.9402ZM121.674 23.0354C121.542 23.1184 121.41 23.1855 121.276 23.2368C121.143 23.2881 120.959 23.3357 120.726 23.3796L120.259 23.4675C119.822 23.5457 119.509 23.6409 119.319 23.7532C118.998 23.9436 118.838 24.239 118.838 24.6394C118.838 24.9959 118.936 25.2534 119.133 25.4121C119.33 25.5708 119.569 25.6501 119.851 25.6501C120.298 25.6501 120.71 25.5183 121.087 25.2546C121.463 24.991 121.659 24.51 121.674 23.8118V23.0354ZM120.412 22.0613C120.796 22.0125 121.071 21.9514 121.236 21.8782C121.533 21.7512 121.681 21.5535 121.681 21.2849C121.681 20.9578 121.568 20.7319 121.342 20.6074C121.116 20.4829 120.784 20.4207 120.347 20.4207C119.856 20.4207 119.509 20.5427 119.304 20.7869C119.159 20.9675 119.061 21.2117 119.013 21.5193H117.008C117.052 20.821 117.246 20.2473 117.591 19.7981C118.141 19.095 119.083 18.7434 120.42 18.7434C121.29 18.7434 122.062 18.9167 122.738 19.2634C123.413 19.6101 123.751 20.2644 123.751 21.2263V24.8884C123.751 25.1423 123.756 25.4499 123.766 25.8113C123.78 26.0847 123.822 26.2703 123.89 26.3679C123.958 26.4656 124.06 26.5461 124.196 26.6096V26.9172H121.936C121.873 26.7561 121.829 26.6047 121.805 26.4631C121.78 26.3215 121.761 26.1604 121.746 25.9797C121.46 26.2922 121.129 26.5583 120.755 26.7781C120.308 27.0369 119.803 27.1663 119.239 27.1663C118.52 27.1663 117.926 26.96 117.457 26.5474C116.988 26.1348 116.753 25.5501 116.753 24.7932C116.753 23.8118 117.13 23.1013 117.883 22.6619C118.296 22.4226 118.904 22.2517 119.705 22.1492L120.412 22.0613ZM128.526 18.7434C129.007 18.7434 129.434 18.8496 129.809 19.062C130.183 19.2744 130.487 19.5686 130.72 19.9446V16.136H132.826V26.9172H130.807V25.8113C130.511 26.2849 130.173 26.6291 129.794 26.844C129.415 27.0588 128.944 27.1663 128.38 27.1663C127.452 27.1663 126.67 26.7891 126.036 26.0347C125.402 25.2803 125.085 24.3123 125.085 23.1306C125.085 21.7683 125.397 20.6965 126.022 19.9153C126.646 19.134 127.481 18.7434 128.526 18.7434ZM128.978 25.4084C129.566 25.4084 130.013 25.1887 130.319 24.7493C130.625 24.3098 130.778 23.741 130.778 23.0427C130.778 22.0662 130.533 21.3679 130.042 20.948C129.741 20.6941 129.391 20.5671 128.992 20.5671C128.385 20.5671 127.939 20.7978 127.655 21.2593C127.37 21.7207 127.228 22.2932 127.228 22.9768C127.228 23.7141 127.373 24.3037 127.662 24.7456C127.951 25.1875 128.39 25.4084 128.978 25.4084ZM142.427 25.4451C143.034 25.4451 143.501 25.2278 143.826 24.7932C144.152 24.3586 144.315 23.741 144.315 22.9402C144.315 22.1394 144.152 21.523 143.826 21.0908C143.501 20.6587 143.034 20.4426 142.427 20.4426C141.819 20.4426 141.352 20.6587 141.024 21.0908C140.695 21.523 140.531 22.1394 140.531 22.9402C140.531 23.741 140.695 24.3586 141.024 24.7932C141.352 25.2278 141.819 25.4451 142.427 25.4451ZM146.494 22.9402C146.494 24.1121 146.159 25.1143 145.488 25.9468C144.818 26.7793 143.8 27.1956 142.434 27.1956C141.068 27.1956 140.05 26.7793 139.38 25.9468C138.709 25.1143 138.374 24.1121 138.374 22.9402C138.374 21.7878 138.709 20.7893 139.38 19.9446C140.05 19.0998 141.068 18.6775 142.434 18.6775C143.8 18.6775 144.818 19.0998 145.488 19.9446C146.159 20.7893 146.494 21.7878 146.494 22.9402ZM152.384 18.7434C153.206 18.7434 153.877 18.9595 154.4 19.3916C154.922 19.8237 155.183 20.5403 155.183 21.5413V26.9172H153.055V22.0613C153.055 21.6414 152.999 21.3191 152.887 21.0945C152.683 20.6843 152.294 20.4792 151.721 20.4792C151.016 20.4792 150.533 20.7795 150.27 21.3801C150.134 21.6975 150.066 22.1028 150.066 22.5959V26.9172H147.996V18.9485H150.001V20.113C150.268 19.7029 150.521 19.4075 150.759 19.2268C151.186 18.9045 151.728 18.7434 152.384 18.7434ZM160.432 20.4939V19.0071H161.54V16.7805H163.595V19.0071H164.886V20.4939H163.595V24.7126C163.595 25.0398 163.637 25.2437 163.719 25.3242C163.802 25.4048 164.055 25.4451 164.478 25.4451C164.541 25.4451 164.608 25.4438 164.678 25.4414C164.748 25.439 164.818 25.4353 164.886 25.4304V26.9905L163.902 27.0271C162.92 27.0613 162.249 26.8904 161.89 26.5144C161.656 26.2751 161.54 25.9065 161.54 25.4084V20.4939H160.432ZM170.601 18.7288C171.092 18.7288 171.537 18.8142 171.938 18.9851C172.339 19.156 172.668 19.4172 172.926 19.7688C173.145 20.0667 173.278 20.373 173.327 20.688C173.376 21.0029 173.4 21.5168 173.4 22.2297V26.9172H171.279V22.0613C171.279 21.6316 171.206 21.2849 171.06 21.0212C170.87 20.6501 170.511 20.4646 169.981 20.4646C169.432 20.4646 169.015 20.6489 168.731 21.0176C168.447 21.3862 168.305 21.9124 168.305 22.5959V26.9172H166.234V16.158H168.305V19.9739C168.606 19.51 168.954 19.1865 169.351 19.0034C169.747 18.8203 170.163 18.7288 170.601 18.7288ZM178.473 20.4426C177.992 20.4426 177.619 20.594 177.354 20.8967C177.09 21.1995 176.923 21.6096 176.855 22.1272H180.084C180.05 21.5754 179.884 21.1567 179.585 20.8711C179.286 20.5854 178.916 20.4426 178.473 20.4426ZM178.473 18.7214C179.134 18.7214 179.73 18.8459 180.259 19.095C180.789 19.344 181.226 19.7371 181.571 20.2742C181.882 20.7478 182.084 21.2971 182.176 21.9221C182.23 22.2883 182.252 22.8157 182.242 23.5042H176.804C176.833 24.3049 177.084 24.8665 177.555 25.1887C177.842 25.3889 178.187 25.489 178.59 25.489C179.018 25.489 179.365 25.3669 179.632 25.1228C179.778 24.991 179.907 24.8079 180.019 24.5735H182.14C182.087 25.0471 181.841 25.5281 181.404 26.0164C180.723 26.7927 179.771 27.1809 178.546 27.1809C177.535 27.1809 176.644 26.8538 175.871 26.1995C175.098 25.5452 174.712 24.4807 174.712 23.0061C174.712 21.6243 175.061 20.5647 175.758 19.8274C176.455 19.0901 177.36 18.7214 178.473 18.7214Z" fill="white"/>
<path fill-rule="evenodd" clip-rule="evenodd" d="M44.0638 36.4435C44.1021 33.4747 45.6585 30.7324 48.1878 29.1774C46.5849 26.8883 43.9965 25.4889 41.2033 25.4015C38.2646 25.093 35.4157 27.16 33.9182 27.16C32.3917 27.16 30.0861 25.4321 27.6033 25.4832C24.3366 25.5887 21.365 27.401 19.7757 30.257C16.3912 36.1167 18.9157 44.7286 22.1578 49.4651C23.7799 51.7845 25.6756 54.3753 28.1562 54.2834C30.5835 54.1827 31.4901 52.7356 34.4201 52.7356C37.3229 52.7356 38.1735 54.2834 40.7044 54.225C43.309 54.1827 44.9501 51.8953 46.5152 49.554C47.6807 47.9014 48.5775 46.0748 49.1725 44.1421C46.0789 42.8337 44.0674 39.8024 44.0638 36.4435Z" fill="white"/>
<path fill-rule="evenodd" clip-rule="evenodd" d="M39.2835 22.2863C40.7037 20.5815 41.4033 18.3901 41.2339 16.1777C39.0642 16.4056 37.06 17.4426 35.6206 19.0821C34.1993 20.6996 33.4793 22.8158 33.6191 24.9645C35.8179 24.9871 37.9056 24 39.2835 22.2863Z" fill="white"/>
<path d="M74.7473 48.4117H66.4638L64.4745 54.2855H60.966L68.812 32.554H72.4572L80.3032 54.2855H76.7348L74.7473 48.4117ZM67.3217 45.7012H73.8877L70.6509 36.1685H70.5603L67.3217 45.7012Z" fill="white"/>
<path d="M97.2477 46.3643C97.2477 51.2879 94.6125 54.4512 90.6357 54.4512C88.5801 54.5587 86.6439 53.4821 85.6506 51.6792H85.5753V59.5268H82.3231V38.4414H85.4711V41.0767H85.5309C86.5684 39.2851 88.5067 38.2089 90.5759 38.2756C94.597 38.2757 97.2477 41.4544 97.2477 46.3643ZM93.905 46.3643C93.905 43.1565 92.2472 41.0476 89.7179 41.0476C87.2331 41.0476 85.5617 43.2009 85.5617 46.3643C85.5617 49.5567 87.2331 51.6946 89.7179 51.6946C92.2472 51.6946 93.905 49.6011 93.905 46.3643Z" fill="white"/>
<path d="M114.686 46.3643C114.686 51.2879 112.051 54.4512 108.074 54.4512C106.019 54.5587 104.082 53.482 103.089 51.6792H103.014V59.5268H99.7616V38.4414H102.91V41.0767H102.969C104.007 39.2851 105.945 38.2089 108.014 38.2756C112.036 38.2756 114.686 41.4543 114.686 46.3643ZM111.343 46.3643C111.343 43.1565 109.686 41.0476 107.156 41.0476C104.672 41.0476 103 43.2009 103 46.3643C103 49.5566 104.672 51.6946 107.156 51.6946C109.686 51.6946 111.343 49.6011 111.343 46.3643Z" fill="white"/>
<path fill-rule="evenodd" clip-rule="evenodd" d="M126.212 48.2306C126.453 50.3856 128.546 51.8006 131.407 51.8006C134.148 51.8006 136.12 50.3855 136.12 48.4424C136.12 46.7556 134.931 45.7456 132.114 45.0535L129.298 44.375C125.308 43.4111 123.455 41.5449 123.455 38.5166C123.455 34.7671 126.723 32.1917 131.362 32.1917C135.954 32.1917 139.102 34.7671 139.208 38.5166H135.925C135.729 36.3479 133.936 35.0388 131.316 35.0388C128.696 35.0388 126.904 36.3633 126.904 38.291C126.904 39.8274 128.049 40.7315 130.85 41.4235L133.244 42.0114C137.703 43.0659 139.555 44.8569 139.555 48.0356C139.555 52.1013 136.317 54.6476 131.166 54.6476C126.347 54.6476 123.093 52.1611 122.882 48.2304L126.212 48.2306Z" fill="white"/>
<path fill-rule="evenodd" clip-rule="evenodd" d="M146.574 34.6919V38.4414H149.587V41.0168H146.574V49.7515C146.574 51.1084 147.177 51.7407 148.502 51.7407C148.86 51.7345 149.217 51.7094 149.572 51.6655V54.2255C148.976 54.3368 148.371 54.3872 147.765 54.3759C144.558 54.3759 143.307 53.1711 143.307 50.0983V41.0168H141.003V38.4414H143.307V34.6919H146.574Z" fill="white"/>
<path d="M151.332 46.3643C151.332 41.3792 154.268 38.2466 158.846 38.2466C163.44 38.2466 166.363 41.3791 166.363 46.3643C166.363 51.363 163.456 54.4819 158.846 54.4819C154.239 54.4819 151.332 51.363 151.332 46.3643ZM163.049 46.3643C163.049 42.9446 161.482 40.9263 158.846 40.9263C156.211 40.9263 154.646 42.96 154.646 46.3643C154.646 49.7976 156.211 51.8005 158.846 51.8005C161.482 51.8005 163.049 49.7976 163.049 46.3643Z" fill="white"/>
<path fill-rule="evenodd" clip-rule="evenodd" d="M169.044 38.4415H172.146V41.1383H172.221C172.654 39.4023 174.244 38.2075 176.032 38.2757C176.407 38.2744 176.781 38.3151 177.146 38.3971V41.4391C176.673 41.2945 176.18 41.2281 175.685 41.2425C174.729 41.2038 173.804 41.5848 173.152 42.2856C172.5 42.9864 172.188 43.937 172.296 44.8878V54.2855H169.044L169.044 38.4415Z" fill="white"/>
<path d="M192.141 49.6318C191.703 52.508 188.902 54.4819 185.319 54.4819C180.709 54.4819 177.849 51.3938 177.849 46.4395C177.849 41.4697 180.725 38.2466 185.182 38.2466C189.565 38.2466 192.322 41.2578 192.322 46.0618V47.176H181.132V47.3726C181.027 48.5521 181.434 49.7197 182.25 50.5783C183.065 51.437 184.21 51.9039 185.394 51.8603C186.972 52.0082 188.46 51.102 189.053 49.6318L192.141 49.6318ZM181.147 44.9031L189.068 44.9031C189.127 43.8432 188.741 42.8067 188.004 42.0433C187.266 41.28 186.243 40.859 185.182 40.8818C184.112 40.8755 183.084 41.2966 182.327 42.0518C181.569 42.8069 181.144 43.8334 181.147 44.9031Z" fill="white"/>
</g>
<defs>
<clipPath id="clip0_160_8304">
<rect width="210" height="70" fill="white" transform="translate(0.718262 0.917236)"/>
</clipPath>
</defs>
</svg>
