<svg width="170" height="168" viewBox="0 0 170 168" fill="none" xmlns="http://www.w3.org/2000/svg">
<path fill-rule="evenodd" clip-rule="evenodd" d="M85.3125 167.999C38.7715 167.999 0.8125 130.265 0.8125 83.999C0.8125 37.7334 38.7715 -0.00100708 85.3125 -0.00100708C131.854 -0.00100708 169.812 37.7334 169.812 83.999C169.812 130.265 131.854 167.999 85.3125 167.999Z" fill="#5EAC24"/>
<path fill-rule="evenodd" clip-rule="evenodd" d="M85.3125 155.53C45.7031 155.53 13.3555 123.374 13.3555 83.999C13.3555 44.624 45.7031 12.4677 85.3125 12.4677C124.922 12.4677 157.27 44.624 157.27 83.999C157.27 123.374 125.252 155.53 85.3125 155.53Z" fill="#96C970"/>
<path fill-rule="evenodd" clip-rule="evenodd" d="M67.8188 125.015C67.1587 125.015 66.4985 124.686 66.1685 124.358L31.5103 90.2334C30.52 89.249 30.52 87.6084 31.5103 86.624L44.3833 74.1552C44.7134 73.499 45.3735 73.499 46.0337 73.499C46.6938 73.499 47.0239 73.499 47.6841 74.1552L67.4888 94.1709L118.321 43.6396C119.311 42.6552 120.961 42.6552 121.952 43.6396L134.495 56.4365C135.155 56.7646 135.155 57.4209 135.155 58.0771C135.155 58.4052 135.155 59.0615 134.495 59.7177L69.4692 124.358C68.8091 124.686 68.479 125.015 67.8188 125.015Z" fill="white"/>
</svg>
