<svg width="211" height="71" viewBox="0 0 211 71" fill="none" xmlns="http://www.w3.org/2000/svg">
<g clip-path="url(#clip0_160_8326)">
<path d="M202.94 70.0359H8.49604C4.21826 70.0359 0.718262 66.0984 0.718262 61.2859V8.78589C0.718262 3.97339 4.21826 0.0358887 8.49604 0.0358887H202.94C207.218 0.0358887 210.718 3.97339 210.718 8.78589V61.2859C210.718 66.0984 207.218 70.0359 202.94 70.0359Z" fill="black"/>
<path d="M202.94 1.43589C206.543 1.43589 209.474 4.73289 209.474 8.78589V61.2859C209.474 65.3389 206.543 68.6359 202.94 68.6359H8.49604C4.89337 68.6359 1.96271 65.3389 1.96271 61.2859V8.78589C1.96271 4.73289 4.89337 1.43589 8.49604 1.43589H202.94ZM202.94 0.0358887H8.49604C4.21826 0.0358887 0.718262 3.97339 0.718262 8.78589V61.2859C0.718262 66.0984 4.21826 70.0359 8.49604 70.0359H202.94C207.218 70.0359 210.718 66.0984 210.718 61.2859V8.78589C210.718 3.97339 207.218 0.0358887 202.94 0.0358887Z" fill="#A6A6A6"/>
<path d="M74.4796 17.961C74.4796 19.4275 74.0938 20.5947 73.3207 21.4662C72.4434 22.5022 71.2985 23.0202 69.8923 23.0202C68.5452 23.0202 67.3987 22.4952 66.4576 21.4452C65.5149 20.3935 65.0436 19.0915 65.0436 17.5375C65.0436 15.9817 65.5149 14.6797 66.4576 13.6297C67.3987 12.578 68.5452 12.053 69.8923 12.053C70.5612 12.053 71.2005 12.2 71.8072 12.4922C72.4154 12.7862 72.9023 13.1765 73.2663 13.6647L72.4465 14.5887C71.8289 13.7575 70.978 13.3427 69.8907 13.3427C68.9076 13.3427 68.0583 13.7312 67.3412 14.5082C66.6256 15.2852 66.2678 16.2932 66.2678 17.5357C66.2678 18.7782 66.6256 19.7862 67.3427 20.565C68.0598 21.342 68.9092 21.7305 69.8923 21.7305C70.9345 21.7305 71.8041 21.3402 72.4994 20.558C72.9505 20.0487 73.2118 19.34 73.2818 18.4317H69.8923V17.1682H74.4143C74.4594 17.443 74.4796 17.7072 74.4796 17.961Z" fill="white" stroke="white" stroke-width="0.2" stroke-miterlimit="10"/>
<path d="M81.6507 13.5756H77.4009V16.9041H81.2338V18.1659H77.4009V21.4944H81.6507V22.7859H76.2016V12.2859H81.6507V13.5756Z" fill="white" stroke="white" stroke-width="0.2" stroke-miterlimit="10"/>
<path d="M86.7078 22.7859H85.507V13.5756H82.8998V12.2859H89.3134V13.5756H86.7063L86.7078 22.7859Z" fill="white" stroke="white" stroke-width="0.2" stroke-miterlimit="10"/>
<path d="M93.9552 22.7859V12.2859H95.1545V22.7859H93.9552Z" fill="white" stroke="white" stroke-width="0.2" stroke-miterlimit="10"/>
<path d="M100.473 22.7859H99.2721V13.5756H96.6649V12.2859H103.079V13.5756H100.471L100.473 22.7859Z" fill="white" stroke="white" stroke-width="0.2" stroke-miterlimit="10"/>
<path d="M115.221 21.4279C114.303 22.4901 113.163 23.0186 111.799 23.0186C110.435 23.0186 109.295 22.4884 108.378 21.4279C107.461 20.3674 107.003 19.0689 107.003 17.5341C107.003 15.9994 107.461 14.7009 108.378 13.6404C109.295 12.5781 110.435 12.0479 111.799 12.0479C113.155 12.0479 114.294 12.5816 115.215 13.6474C116.136 14.7131 116.596 16.0081 116.596 17.5341C116.596 19.0706 116.137 20.3691 115.221 21.4279ZM109.263 20.5494C109.954 21.3369 110.799 21.7289 111.799 21.7289C112.799 21.7289 113.644 21.3351 114.335 20.5494C115.025 19.7619 115.372 18.7574 115.372 17.5359C115.372 16.3144 115.025 15.3081 114.335 14.5224C113.645 13.7349 112.799 13.3429 111.799 13.3429C110.799 13.3429 109.954 13.7366 109.263 14.5224C108.574 15.3099 108.227 16.3144 108.227 17.5359C108.227 18.7574 108.574 19.7619 109.263 20.5494Z" fill="white" stroke="white" stroke-width="0.2" stroke-miterlimit="10"/>
<path d="M118.279 22.7859V12.2859H119.739L124.275 20.4549H124.326L124.275 18.4319V12.2859H125.474V22.7859H124.222L119.476 14.2214H119.424L119.476 16.2444V22.7859H118.279Z" fill="white" stroke="white" stroke-width="0.2" stroke-miterlimit="10"/>
<path d="M106.708 38.1002C103.049 38.1002 100.067 41.2292 100.067 45.543C100.067 49.8287 103.049 52.9857 106.708 52.9857C110.366 52.9857 113.348 49.8287 113.348 45.543C113.348 41.231 110.366 38.1002 106.708 38.1002ZM106.708 50.0545C104.703 50.0545 102.973 48.1942 102.973 45.543C102.973 42.8637 104.703 41.0315 106.708 41.0315C108.713 41.0315 110.441 42.8637 110.441 45.543C110.441 48.1942 108.713 50.0545 106.708 50.0545ZM92.2192 38.1002C88.5605 38.1002 85.5785 41.2292 85.5785 45.543C85.5785 49.8287 88.5605 52.9857 92.2192 52.9857C95.8778 52.9857 98.8598 49.8287 98.8598 45.543C98.8614 41.231 95.8778 38.1002 92.2192 38.1002ZM92.2192 50.0545C90.2141 50.0545 88.4858 48.1942 88.4858 45.543C88.4858 42.8637 90.2156 41.0315 92.2192 41.0315C94.2243 41.0315 95.9525 42.8637 95.9525 45.543C95.9541 48.1942 94.2243 50.0545 92.2192 50.0545ZM74.9867 40.384V43.541H81.7036C81.503 45.3172 80.9772 46.614 80.1745 47.517C79.1976 48.616 77.6685 49.8287 74.9867 49.8287C70.8521 49.8287 67.6196 46.0785 67.6196 41.427C67.6196 36.7755 70.8521 33.0252 74.9867 33.0252C77.2174 33.0252 78.8461 34.0122 80.0485 35.281L82.0287 33.0532C80.3503 31.249 78.1196 29.8665 74.9867 29.8665C69.323 29.8665 64.5614 35.0535 64.5614 41.4252C64.5614 47.797 69.323 52.984 74.9867 52.984C78.0434 52.984 80.3503 51.857 82.1547 49.7412C84.009 47.6552 84.5861 44.7222 84.5861 42.3545C84.5861 41.6212 84.5363 40.944 84.4352 40.3805H74.9867V40.384ZM145.466 42.8375C144.915 41.1732 143.235 38.1002 139.802 38.1002C136.394 38.1002 133.563 41.1172 133.563 45.543C133.563 49.715 136.369 52.9857 140.129 52.9857C143.161 52.9857 144.915 50.8997 145.642 49.687L143.386 47.9947C142.635 49.2355 141.607 50.0527 140.129 50.0527C138.649 50.0527 137.598 49.2915 136.921 47.797L145.768 43.681L145.466 42.8375ZM136.444 45.319C136.369 42.4437 138.424 40.9772 139.902 40.9772C141.054 40.9772 142.031 41.6265 142.358 42.5557L136.444 45.319ZM129.251 52.536H132.158V30.6575H129.251V52.536ZM124.489 39.7645H124.39C123.738 38.8912 122.486 38.1002 120.907 38.1002C117.598 38.1002 114.566 41.371 114.566 45.571C114.566 49.743 117.598 52.9857 120.907 52.9857C122.486 52.9857 123.738 52.1965 124.39 51.2935H124.489V52.3645C124.489 55.2117 123.136 56.7342 120.955 56.7342C119.175 56.7342 118.073 55.2957 117.621 54.0847L115.091 55.2695C115.817 57.2435 117.747 59.6672 120.955 59.6672C124.363 59.6672 127.246 57.4115 127.246 51.9147V38.5517H124.489V39.7645ZM121.157 50.0545C119.152 50.0545 117.474 48.1662 117.474 45.571C117.474 42.9495 119.152 41.0315 121.157 41.0315C123.137 41.0315 124.69 42.9477 124.69 45.571C124.69 48.1662 123.137 50.0545 121.157 50.0545ZM159.083 30.6592H152.128V52.536H155.029V44.248H159.082C162.299 44.248 165.461 41.6282 165.461 37.4545C165.461 33.2807 162.3 30.6592 159.083 30.6592ZM159.158 41.203H155.029V33.7042H159.158C161.328 33.7042 162.56 35.7255 162.56 37.4545C162.56 39.1485 161.328 41.203 159.158 41.203ZM177.097 38.0617C174.995 38.0617 172.819 39.103 171.918 41.4112L174.496 42.6222C175.046 41.4112 176.071 41.0175 177.148 41.0175C178.649 41.0175 180.175 42.0307 180.2 43.8315V44.0572C179.674 43.7195 178.548 43.212 177.173 43.212C174.396 43.212 171.568 44.9287 171.568 48.1382C171.568 51.066 173.845 52.9507 176.397 52.9507C178.349 52.9507 179.424 51.9655 180.099 50.8122H180.198V52.501H183V44.1132C183 40.2282 180.424 38.0617 177.097 38.0617ZM176.745 50.051C175.795 50.051 174.468 49.5155 174.468 48.1925C174.468 46.5037 176.12 45.8562 177.545 45.8562C178.82 45.8562 179.421 46.166 180.197 46.5877C179.973 48.616 178.422 50.051 176.745 50.051ZM193.207 38.5395L189.88 48.0245H189.781L186.329 38.5395H183.202L188.381 51.7957L185.428 59.1702H188.455L196.437 38.5395H193.207ZM167.063 52.536H169.966V30.6592H167.063V52.536Z" fill="white"/>
<path d="M16.9505 13.2274C16.4978 13.7664 16.2303 14.6029 16.2303 15.6861V54.3891C16.2303 55.4741 16.4978 56.3089 16.9505 56.8479L17.0656 56.9739L36.3374 35.2931V35.0376V34.7821L17.0656 13.0996L16.9505 13.2274Z" fill="url(#paint0_linear_160_8326)"/>
<path d="M42.7618 42.5224L36.3389 35.2932V35.0377V34.7822L42.7634 27.5547L42.908 27.6474L50.5194 32.5124C52.694 33.9019 52.694 36.1752 50.5194 37.5664L42.908 42.4314L42.7618 42.5224Z" fill="url(#paint1_linear_160_8326)"/>
<path d="M42.9081 42.4296L36.3389 35.0376L16.9505 56.8479C17.6676 57.7019 18.8498 57.8069 20.1829 56.9546L42.9081 42.4296Z" fill="url(#paint2_linear_160_8326)"/>
<path d="M42.9081 27.6458L20.1845 13.1208C18.8514 12.2685 17.6692 12.3753 16.9521 13.2275L36.339 35.0378L42.9081 27.6458Z" fill="url(#paint3_linear_160_8326)"/>
<path opacity="0.2" d="M42.7634 42.2668L20.1845 56.6991C18.9214 57.5058 17.7921 57.4533 17.0672 56.7183L16.9505 56.8478L17.0656 56.9738C17.7905 57.7088 18.9198 57.7631 20.1829 56.9546L42.9065 42.4296L42.7634 42.2668Z" fill="black"/>
<path opacity="0.12" d="M16.9505 56.5923C16.4978 56.0533 16.2303 55.2168 16.2303 54.1335V54.389C16.2303 55.4723 16.4978 56.3088 16.9505 56.8478L17.0672 56.7183L16.9505 56.5923Z" fill="black"/>
<path opacity="0.12" d="M50.5194 37.3091L42.7634 42.2668L42.9081 42.4296L50.5194 37.5646C51.6068 36.8698 52.1496 35.9546 52.1496 35.0393C52.0579 35.8653 51.5041 36.6791 50.5194 37.3091Z" fill="black"/>
<path opacity="0.25" d="M20.183 13.3762L50.5178 32.7662C51.5041 33.3962 52.0563 34.2082 52.1481 35.0377C52.1481 34.1224 51.6052 33.2054 50.5178 32.5107L20.183 13.1207C18.0083 11.7312 16.2303 12.8844 16.2303 15.6862V15.9417C16.2303 13.1417 18.0098 11.9867 20.183 13.3762Z" fill="white"/>
</g>
<defs>
<linearGradient id="paint0_linear_160_8326" x1="34.6288" y1="15.2777" x2="5.46212" y2="41.2036" gradientUnits="userSpaceOnUse">
<stop stop-color="#00A0FF"/>
<stop offset="0.0066" stop-color="#00A1FF"/>
<stop offset="0.2601" stop-color="#00BEFF"/>
<stop offset="0.5122" stop-color="#00D2FF"/>
<stop offset="0.7604" stop-color="#00DFFF"/>
<stop offset="1" stop-color="#00E3FF"/>
</linearGradient>
<linearGradient id="paint1_linear_160_8326" x1="53.3494" y1="35.0384" x2="15.7098" y2="35.0384" gradientUnits="userSpaceOnUse">
<stop stop-color="#FFE000"/>
<stop offset="0.4087" stop-color="#FFBD00"/>
<stop offset="0.7754" stop-color="#FFA500"/>
<stop offset="1" stop-color="#FF9C00"/>
</linearGradient>
<linearGradient id="paint2_linear_160_8326" x1="39.3379" y1="39.0538" x2="-0.21446" y2="74.2115" gradientUnits="userSpaceOnUse">
<stop stop-color="#FF3A44"/>
<stop offset="1" stop-color="#C31162"/>
</linearGradient>
<linearGradient id="paint3_linear_160_8326" x1="12.0695" y1="0.344209" x2="29.7314" y2="16.0435" gradientUnits="userSpaceOnUse">
<stop stop-color="#32A071"/>
<stop offset="0.0685" stop-color="#2DA771"/>
<stop offset="0.4762" stop-color="#15CF74"/>
<stop offset="0.8009" stop-color="#06E775"/>
<stop offset="1" stop-color="#00F076"/>
</linearGradient>
<clipPath id="clip0_160_8326">
<rect width="210" height="70" fill="white" transform="translate(0.718262 0.0358887)"/>
</clipPath>
</defs>
</svg>
