<svg width="99" height="215" viewBox="0 0 99 215" fill="none" xmlns="http://www.w3.org/2000/svg">
<path d="M31.7596 95.9195C34.6959 94.1509 38.5165 95.0919 40.285 98.0395C42.0536 100.976 41.1126 104.796 38.165 106.565C35.2288 108.333 31.4082 107.392 29.6396 104.445C27.8711 101.52 28.8234 97.6994 31.7596 95.9195Z" fill="#FCC9A7"/>
<path d="M38.7999 96.3615C38.5958 96.2028 27.6897 83.3921 27.6897 83.3921L23.2343 88.7885L33.0748 101.248L38.7999 96.3615Z" fill="#FCC9A7"/>
<path d="M29.6057 196.24L26.8281 208.926L18.0533 207.611L20.8876 195.095L29.6057 196.24Z" fill="#FCC9A7"/>
<path d="M68.9448 195.106L69.0468 208.098L60.2154 208.756L60.1927 195.923L68.9448 195.106Z" fill="#FCC9A7"/>
<path d="M27.9391 206.863C27.7577 206.33 27.1115 206.103 26.6467 206.443C25.7397 207.101 24.1412 207.872 21.8285 207.6C19.4251 207.316 18.5635 206.046 18.2688 205.139C18.11 204.663 17.5999 204.414 17.1351 204.595L2.24967 210.558C1.34272 210.921 0.617132 211.624 0.243013 212.52C-0.119769 213.359 0.492459 214.3 1.41075 214.3L26.7034 214.481C27.7011 214.492 28.4946 213.665 28.4493 212.667L28.2339 207.781C28.2339 207.702 28.2112 207.622 28.1886 207.543L27.9391 206.863Z" fill="#0C0C0C"/>
<path d="M59.3197 206.863C59.5011 206.33 60.1586 206.103 60.6121 206.443C61.5191 207.101 63.1176 207.872 65.4303 207.6C67.8337 207.316 68.684 206.046 68.9901 205.139C69.1488 204.663 69.659 204.414 70.1238 204.595L85.0092 210.558C85.9162 210.921 86.6417 211.624 87.0158 212.52C87.3786 213.359 86.7664 214.3 85.8481 214.3L60.5555 214.481C59.5578 214.492 58.7642 213.665 58.8096 212.667L59.0249 207.781C59.0249 207.702 59.0476 207.622 59.0703 207.543L59.3197 206.863Z" fill="#0C0C0C"/>
<path d="M59.2064 32.2285L51.3499 32.9087L38.8566 39.949V90.0128H72.1985V39.949L59.2064 32.2285Z" fill="#54585A"/>
<path d="M57.0523 37.2736H54.7963C52.4609 37.2736 50.5677 35.3804 50.5677 33.045V24.5649H61.2697V33.045C61.2811 35.3804 59.3878 37.2736 57.0523 37.2736Z" fill="#FCC9A7"/>
<path d="M50.5677 28.8843C50.5677 28.8843 52.2342 32.2287 56.0207 32.2287C59.8073 32.2287 61.2697 28.8163 61.2697 28.8163L50.5677 28.8843Z" fill="#F4BE9A"/>
<path d="M56.0434 30.2674H55.6919C50.2389 30.2674 45.7494 25.9594 45.534 20.5063L45.3413 15.0759C45.1146 9.30541 49.7287 4.50989 55.4992 4.50989H56.2361C60.6008 4.50989 66.6207 9.30541 66.3939 15.0759L66.2012 20.5063C65.9858 25.9594 61.4965 30.2674 56.0434 30.2674Z" fill="#FCC9A7"/>
<path d="M48.6517 19.1911C48.7764 21.0277 47.3933 22.6148 45.5567 22.7395C43.7202 22.8642 42.133 21.4811 42.0083 19.6446C41.8836 17.808 43.2666 16.2208 45.1032 16.0961C46.9398 15.9827 48.527 17.3658 48.6517 19.1911Z" fill="#FCC9A7"/>
<path d="M69.7157 19.1911C69.8404 21.0277 68.4573 22.6148 66.6207 22.7395C64.7841 22.8642 63.1969 21.4811 63.0722 19.6446C62.9475 17.808 64.3307 16.2208 66.1673 16.0961C68.0038 15.9827 69.591 17.3658 69.7157 19.1911Z" fill="#FCC9A7"/>
<path d="M38.8566 89.7748L18.1214 200.004L30.0365 199.89L60.3514 89.9902L38.8566 89.7748Z" fill="#0C0C0C"/>
<path d="M72.1985 90.0129L70.8948 200.117H58.2994L53.2772 90.7045L72.1985 90.0129Z" fill="#0C0C0C"/>
<path d="M38.8566 39.9491C38.8566 39.9491 11.0131 56.7504 4.24498 68.4048C2.91856 70.6835 4.64174 73.6311 6.97715 74.8442C9.56197 76.1933 12.7477 75.275 14.2328 72.7695L39.9903 57.8274C40.0016 57.8274 38.8566 44.994 38.8566 39.9491Z" fill="#54585A"/>
<path d="M44.7631 8.90861L45.5454 17.2526H46.8038L46.9625 12.8765C46.9625 12.8765 47.62 11.1987 50.5563 7.59353C50.5563 7.59353 52.4722 12.4911 64.342 11.5388L65.0336 17.0712L66.2579 16.9352L66.9041 10.9946C67.3349 8.98797 67.4823 7.11738 67.1195 5.09941C66.3826 1.01811 63.0609 -1.23794 53.4699 1.64164C52.6763 1.87972 54.2975 1.721 53.4699 1.64164C50.7263 1.33555 43.4934 1.30153 44.7631 8.90861Z" fill="#2E2A33"/>
<path d="M58.8889 89.2194L56.1907 118.083C56.0887 119.172 56.8256 120.158 57.9026 120.362L91.0065 126.688C92.2195 126.926 93.3759 126.064 93.512 124.84L96.5389 97.4046C96.6523 96.339 95.9607 95.3526 94.9064 95.1032L61.4738 87.3488C60.2267 87.054 59.0136 87.9383 58.8889 89.2194Z" fill="#AFAFAF"/>
<path d="M60.7255 89.7295L58.0274 118.593C57.9253 119.682 58.6622 120.668 59.7392 120.872L92.843 127.198C94.0561 127.425 95.2125 126.575 95.3485 125.35L98.3755 97.9148C98.4888 96.8491 97.7973 95.8628 96.7429 95.6134L63.3103 87.8589C62.0746 87.5641 60.8502 88.4484 60.7255 89.7295Z" fill="#D1D1D1"/>
<path d="M77.9577 119.194C81.2454 120.169 83.1273 123.627 82.1523 126.915C81.1774 130.202 77.7196 132.084 74.4319 131.121C71.1442 130.146 69.2622 126.688 70.2259 123.4C71.2122 120.101 74.6586 118.219 77.9577 119.194Z" fill="#FCC9A7"/>
<path d="M82.3904 124.681C82.3677 124.421 81.3021 107.12 81.3021 107.12L75.4182 108.186L76.2004 122.935L82.3904 124.681Z" fill="#FCC9A7"/>
<path d="M72.1985 39.9491C72.1985 39.9491 81.1093 46.3318 81.6762 55.424L84.465 76.6808C84.6238 77.9278 84.6918 79.1749 84.6465 80.4333L83.5694 112.766H71.3369L71.1102 77.7691L72.1985 39.9491Z" fill="#54585A"/>
<path d="M52.2909 32.2285C51.3386 32.9201 46.7471 35.5049 46.7471 35.5049C46.7471 35.5049 46.8718 41.9669 56.5989 41.4454C65.1583 40.992 65.1016 35.743 65.1016 35.743L59.195 32.2285H52.2909V32.2285Z" fill="#FCC9A7"/>
<path d="M17.9626 64.2101L34.6052 90.8065L26.7147 98.2775L4.29028 72.1006L17.9626 64.2101Z" fill="#54585A"/>
<path d="M71.0988 89.6615V77.7577L68.3326 56.0475" stroke="#424647" stroke-width="0.7693" stroke-miterlimit="10" stroke-linecap="round" stroke-linejoin="round"/>
</svg>
