<svg width="132" height="194" viewBox="0 0 132 194" fill="none" xmlns="http://www.w3.org/2000/svg">
<path d="M46.9465 174.978L49.1265 187.738L55.4465 188.348L53.2565 174.098L46.9465 174.978Z" fill="#FCC9A7"/>
<path d="M48.2565 186.858C48.3865 186.408 48.8565 186.238 49.1965 186.508C49.8465 187.048 51.0165 187.698 52.6865 187.468C54.4265 187.238 55.0465 186.178 55.2765 185.438C55.3965 185.048 55.7665 184.838 56.0965 184.988L67.9265 189.948C68.5865 190.248 69.1065 190.838 69.3765 191.578C69.6365 192.278 69.1865 193.048 68.5265 193.058L49.1465 193.178C48.4265 193.178 47.8465 192.498 47.8865 191.668L48.0565 187.628C48.0565 187.558 48.0665 187.498 48.0865 187.428L48.2565 186.858Z" fill="#3E4449"/>
<path d="M21.3965 116.268H18.8165V191.498H21.3965V116.268Z" fill="#555259"/>
<path d="M15.8065 100.798L34.2865 134.738L45.9765 181.888H56.5865L49.0165 129.488L15.8065 100.798Z" fill="#4E4E4B"/>
<path d="M31.0565 115.158H7.95648C4.64648 115.158 1.95648 112.478 1.95648 109.158C1.95648 105.848 4.63648 103.158 7.95648 103.158H31.0565C34.3665 103.158 37.0565 105.848 37.0565 109.158C37.0565 112.478 34.3665 115.158 31.0565 115.158Z" fill="#FFEEE3"/>
<path d="M31.1965 115.158H8.99646V117.378H31.1965V115.158Z" fill="#555259"/>
<path d="M31.1965 173.238H8.99646V175.458H31.1965V173.238Z" fill="#555259"/>
<path d="M18.9064 39.3276C14.4564 38.7876 10.2365 41.4776 8.53645 45.6176C7.09645 49.1076 5.89644 54.1676 7.17644 60.0376C11.0764 78.0076 8.74645 90.4376 8.74645 90.4376H29.8765L29.7965 65.9676C29.7965 65.9676 31.2565 63.1176 32.0465 59.3876C33.1565 54.1676 32.7364 53.4876 29.6864 48.8676L23.1965 40.9476C23.2065 40.9476 21.7564 39.6676 18.9064 39.3276Z" fill="#FFD686"/>
<path d="M57.3365 56.6676C58.7465 53.8476 62.1665 52.7076 64.9865 54.1176C67.8065 55.5276 68.9465 58.9476 67.5365 61.7676C66.1265 64.5876 62.7065 65.7276 59.8865 64.3176C57.0665 62.9176 55.9265 59.4876 57.3365 56.6676Z" fill="#FCC9A7"/>
<path d="M58.5865 55.0176L47.8465 65.2176L51.9265 69.7576L60.2965 62.5876L58.5865 55.0176Z" fill="#FCC9A7"/>
<path d="M11.6665 55.1576L31.0965 84.6876C31.8465 85.8176 33.3865 86.0876 34.4765 85.2676L57.9265 66.8476L53.1765 58.6976L35.0365 72.5576L22.3565 49.1076C20.6665 45.5876 16.1765 44.5176 13.0765 46.8776C10.4965 48.8376 9.88648 52.4576 11.6665 55.1576Z" fill="#FFD686"/>
<path d="M20.1265 43.7977C18.8965 43.7877 17.5865 43.2776 16.6165 42.7776C15.6565 42.2876 15.0565 41.2777 15.0665 40.1977L15.2665 20.3577L23.9365 20.3977L23.7365 39.9877C23.7265 42.2377 22.1065 43.8077 20.1265 43.7977Z" fill="#FCC9A7"/>
<path d="M23.7965 34.4877L20.2165 29.4177C20.2165 29.4177 18.0265 35.2077 23.7765 36.9877L23.7965 34.4877Z" fill="#F2C09E"/>
<path d="M31.6065 20.4376C31.5765 26.3476 26.7665 31.1077 20.8565 31.0777C14.9465 31.0477 10.1864 26.2377 10.2164 20.3277C10.2464 14.4177 15.0564 9.65764 20.9664 9.68764C26.8664 9.71764 31.6265 14.5276 31.6065 20.4376Z" fill="#FCC9A7"/>
<path d="M24.5565 34.5476C21.7565 34.5376 19.4865 32.2476 19.5065 29.4476L19.5365 22.1276L31.5965 20.4376L31.5665 27.6076C31.5465 31.4576 28.4165 34.5676 24.5565 34.5476Z" fill="#FCC9A7"/>
<path d="M31.2765 22.8276L33.5965 26.2776C33.9265 26.8376 33.4965 27.5276 32.8065 27.5276L30.0965 28.0276L31.2765 22.8276Z" fill="#FCC9A7"/>
<path d="M19.5465 25.0577L24.0965 24.8977C24.0965 24.8977 24.4865 20.9476 25.3765 19.9976C26.2665 19.0476 26.7164 14.8277 26.7164 14.8277C26.7164 14.8277 24.5665 17.4577 23.9365 20.1777L33.4664 19.9376C33.4664 19.9376 34.8865 8.37764 20.4565 7.81764C6.01647 7.25764 6.41646 20.9176 9.25646 23.6276C11.5165 25.7876 15.1764 31.0877 15.1764 31.0877C15.1764 31.0877 15.0065 25.2177 19.5465 25.0577Z" fill="#704350"/>
<path d="M22.8465 23.6576C22.9065 25.3476 21.5865 26.7576 19.9065 26.8176C18.2165 26.8776 16.8065 25.5576 16.7365 23.8776C16.6765 22.1876 17.9965 20.7777 19.6765 20.7077C21.3665 20.6477 22.7765 21.9676 22.8465 23.6576Z" fill="#FCC9A7"/>
<path d="M14.0265 6.33759C14.4865 10.1276 11.7965 13.5676 8.01648 14.0376C4.22648 14.4976 0.786468 11.8076 0.316468 8.0176C-0.143532 4.2276 2.54646 0.787601 6.33646 0.327601C10.1265 -0.142399 13.5665 2.5476 14.0265 6.33759Z" fill="#704350"/>
<path d="M15.4065 41.5676C15.4065 41.5676 16.2365 44.1576 27.8165 46.5676L22.4365 39.2476L15.4065 41.5676Z" fill="#FCC9A7"/>
<path d="M20.1065 187.698L4.58646 193.008H35.6065L20.1065 187.698Z" fill="#555259"/>
<path d="M21.2765 155.888L12.7865 166.098L18.8865 168.418L27.4065 157.608L21.2765 155.888Z" fill="#FCC9A7"/>
<path d="M13.0765 164.708C13.3765 164.358 13.8765 164.378 14.0765 164.768C14.4565 165.528 15.2565 166.588 16.8865 167.048C18.5765 167.528 20.4264 166.048 20.9264 165.458C21.1864 165.148 21.6165 165.098 21.8565 165.378L32.2464 172.668C32.7264 173.208 32.9664 173.958 32.9264 174.748C32.8864 175.488 32.1664 176.018 31.5564 175.758L10.9964 170.558C10.3364 170.268 10.0765 169.408 10.4465 168.668L12.5864 165.328C12.6164 165.268 12.6565 165.208 12.6965 165.158L13.0765 164.708Z" fill="#3E4449"/>
<path d="M8.13647 90.4376C8.13647 90.4376 1.77645 104.918 24.3765 112.628L39.9965 127.138L15.8165 159.518L26.6265 163.428L55.9865 132.188C58.1565 129.658 58.2465 125.778 56.1965 123.138L29.8865 90.4276H8.13647V90.4376Z" fill="#676260"/>
<path d="M131.116 77.6476H53.9065V81.9476H131.116V77.6476Z" fill="#FFEEE3"/>
<path d="M72.8965 193.028V81.9476" stroke="#555259" stroke-width="2.2811" stroke-miterlimit="10"/>
<path d="M111.506 193.028V81.9476" stroke="#555259" stroke-width="2.2811" stroke-miterlimit="10"/>
<path d="M102.386 75.3076H70.2665V77.3876H102.386V75.3076Z" fill="#6F6D71"/>
<path d="M102.386 77.3976L112.786 47.0376L110.606 46.5176L100.416 75.6776L102.386 77.3976Z" fill="#6F6D71"/>
<path d="M29.6065 82.4277L14.0965 58.8477" stroke="#EFC375" stroke-width="0.7847" stroke-miterlimit="10" stroke-linecap="round" stroke-linejoin="round"/>
<path d="M30.5465 63.9276L24.6265 54.5676" stroke="#EFC375" stroke-width="0.7847" stroke-miterlimit="10" stroke-linecap="round" stroke-linejoin="round"/>
</svg>
